<?xml version="1.0" encoding="utf-8" standalone="no"?>
<!DOCTYPE svg PUBLIC "-//W3C//DTD SVG 1.1//EN"
  "http://www.w3.org/Graphics/SVG/1.1/DTD/svg11.dtd">
<svg xmlns:xlink="http://www.w3.org/1999/xlink" width="720pt" height="432pt" viewBox="0 0 720 432" xmlns="http://www.w3.org/2000/svg" version="1.1">
 <metadata>
  <rdf:RDF xmlns:dc="http://purl.org/dc/elements/1.1/" xmlns:cc="http://creativecommons.org/ns#" xmlns:rdf="http://www.w3.org/1999/02/22-rdf-syntax-ns#">
   <cc:Work>
    <dc:type rdf:resource="http://purl.org/dc/dcmitype/StillImage"/>
    <dc:date>2026-03-15T10:20:25.073007</dc:date>
    <dc:format>image/svg+xml</dc:format>
    <dc:creator>
     <cc:Agent>
      <dc:title>Matplotlib v3.10.7, https://matplotlib.org/</dc:title>
     </cc:Agent>
    </dc:creator>
   </cc:Work>
  </rdf:RDF>
 </metadata>
 <defs>
  <style type="text/css">*{stroke-linejoin: round; stroke-linecap: butt}</style>
 </defs>
 <g id="figure_1">
  <g id="patch_1">
   <path d="M 0 432 
L 720 432 
L 720 0 
L 0 0 
z
" style="fill: #ffffff"/>
  </g>
  <g id="axes_1">
   <g id="patch_2">
    <path d="M 90 384.48 
L 648 384.48 
L 648 51.84 
L 90 51.84 
z
" style="fill: #ffffff"/>
   </g>
   <g id="PathCollection_1">
    <defs>
     <path id="mb4a8880449" d="M 0 3.535534 
C 0.937635 3.535534 1.836992 3.163008 2.5 2.5 
C 3.163008 1.836992 3.535534 0.937635 3.535534 0 
C 3.535534 -0.937635 3.163008 -1.836992 2.5 -2.5 
C 1.836992 -3.163008 0.937635 -3.535534 0 -3.535534 
C -0.937635 -3.535534 -1.836992 -3.163008 -2.5 -2.5 
C -3.163008 -1.836992 -3.535534 -0.937635 -3.535534 0 
C -3.535534 0.937635 -3.163008 1.836992 -2.5 2.5 
C -1.836992 3.163008 -0.937635 3.535534 0 3.535534 
z
" style="stroke: #000000; stroke-opacity: 0.5"/>
    </defs>
    <g clip-path="url(#p204574bdc8)">
     <use xlink:href="#mb4a8880449" x="115.363636" y="369.36" style="fill: #aa8c00; fill-opacity: 0.5; stroke: #000000; stroke-opacity: 0.5"/>
     <use xlink:href="#mb4a8880449" x="115.363636" y="363.06" style="fill: #aa8c00; fill-opacity: 0.5; stroke: #000000; stroke-opacity: 0.5"/>
     <use xlink:href="#mb4a8880449" x="115.363636" y="356.76" style="fill: #aa8c00; fill-opacity: 0.5; stroke: #000000; stroke-opacity: 0.5"/>
     <use xlink:href="#mb4a8880449" x="242.181818" y="309.51" style="fill: #aa8c00; fill-opacity: 0.5; stroke: #000000; stroke-opacity: 0.5"/>
     <use xlink:href="#mb4a8880449" x="242.181818" y="300.06" style="fill: #aa8c00; fill-opacity: 0.5; stroke: #000000; stroke-opacity: 0.5"/>
     <use xlink:href="#mb4a8880449" x="242.181818" y="290.61" style="fill: #aa8c00; fill-opacity: 0.5; stroke: #000000; stroke-opacity: 0.5"/>
     <use xlink:href="#mb4a8880449" x="369" y="243.36" style="fill: #aa8c00; fill-opacity: 0.5; stroke: #000000; stroke-opacity: 0.5"/>
     <use xlink:href="#mb4a8880449" x="369" y="237.06" style="fill: #aa8c00; fill-opacity: 0.5; stroke: #000000; stroke-opacity: 0.5"/>
     <use xlink:href="#mb4a8880449" x="369" y="230.76" style="fill: #aa8c00; fill-opacity: 0.5; stroke: #000000; stroke-opacity: 0.5"/>
     <use xlink:href="#mb4a8880449" x="495.818182" y="183.51" style="fill: #aa8c00; fill-opacity: 0.5; stroke: #000000; stroke-opacity: 0.5"/>
     <use xlink:href="#mb4a8880449" x="495.818182" y="174.06" style="fill: #aa8c00; fill-opacity: 0.5; stroke: #000000; stroke-opacity: 0.5"/>
     <use xlink:href="#mb4a8880449" x="495.818182" y="164.61" style="fill: #aa8c00; fill-opacity: 0.5; stroke: #000000; stroke-opacity: 0.5"/>
     <use xlink:href="#mb4a8880449" x="622.636364" y="117.36" style="fill: #aa8c00; fill-opacity: 0.5; stroke: #000000; stroke-opacity: 0.5"/>
     <use xlink:href="#mb4a8880449" x="622.636364" y="111.06" style="fill: #aa8c00; fill-opacity: 0.5; stroke: #000000; stroke-opacity: 0.5"/>
     <use xlink:href="#mb4a8880449" x="622.636364" y="104.76" style="fill: #aa8c00; fill-opacity: 0.5; stroke: #000000; stroke-opacity: 0.5"/>
    </g>
   </g>
   <g id="PathCollection_2">
    <g clip-path="url(#p204574bdc8)">
     <use xlink:href="#mb4a8880449" x="115.363636" y="369.36" style="fill: #aa8c00; fill-opacity: 0.5; stroke: #000000; stroke-opacity: 0.5"/>
     <use xlink:href="#mb4a8880449" x="115.363636" y="363.06" style="fill: #aa8c00; fill-opacity: 0.5; stroke: #000000; stroke-opacity: 0.5"/>
     <use xlink:href="#mb4a8880449" x="115.363636" y="356.76" style="fill: #aa8c00; fill-opacity: 0.5; stroke: #000000; stroke-opacity: 0.5"/>
     <use xlink:href="#mb4a8880449" x="242.181818" y="309.51" style="fill: #aa8c00; fill-opacity: 0.5; stroke: #000000; stroke-opacity: 0.5"/>
     <use xlink:href="#mb4a8880449" x="242.181818" y="300.06" style="fill: #aa8c00; fill-opacity: 0.5; stroke: #000000; stroke-opacity: 0.5"/>
     <use xlink:href="#mb4a8880449" x="242.181818" y="290.61" style="fill: #aa8c00; fill-opacity: 0.5; stroke: #000000; stroke-opacity: 0.5"/>
     <use xlink:href="#mb4a8880449" x="369" y="255.96" style="fill: #aa8c00; fill-opacity: 0.5; stroke: #000000; stroke-opacity: 0.5"/>
     <use xlink:href="#mb4a8880449" x="369" y="237.06" style="fill: #aa8c00; fill-opacity: 0.5; stroke: #000000; stroke-opacity: 0.5"/>
     <use xlink:href="#mb4a8880449" x="369" y="218.16" style="fill: #aa8c00; fill-opacity: 0.5; stroke: #000000; stroke-opacity: 0.5"/>
     <use xlink:href="#mb4a8880449" x="495.818182" y="199.26" style="fill: #aa8c00; fill-opacity: 0.5; stroke: #000000; stroke-opacity: 0.5"/>
     <use xlink:href="#mb4a8880449" x="495.818182" y="174.06" style="fill: #aa8c00; fill-opacity: 0.5; stroke: #000000; stroke-opacity: 0.5"/>
     <use xlink:href="#mb4a8880449" x="495.818182" y="148.86" style="fill: #aa8c00; fill-opacity: 0.5; stroke: #000000; stroke-opacity: 0.5"/>
     <use xlink:href="#mb4a8880449" x="622.636364" y="155.16" style="fill: #aa8c00; fill-opacity: 0.5; stroke: #000000; stroke-opacity: 0.5"/>
     <use xlink:href="#mb4a8880449" x="622.636364" y="111.06" style="fill: #aa8c00; fill-opacity: 0.5; stroke: #000000; stroke-opacity: 0.5"/>
     <use xlink:href="#mb4a8880449" x="622.636364" y="66.96" style="fill: #aa8c00; fill-opacity: 0.5; stroke: #000000; stroke-opacity: 0.5"/>
    </g>
   </g>
   <g id="PathCollection_3">
    <g clip-path="url(#p204574bdc8)">
     <use xlink:href="#mb4a8880449" x="115.363636" y="369.36" style="fill: #aa8c00; fill-opacity: 0.5; stroke: #000000; stroke-opacity: 0.5"/>
     <use xlink:href="#mb4a8880449" x="115.363636" y="363.06" style="fill: #aa8c00; fill-opacity: 0.5; stroke: #000000; stroke-opacity: 0.5"/>
     <use xlink:href="#mb4a8880449" x="115.363636" y="356.76" style="fill: #aa8c00; fill-opacity: 0.5; stroke: #000000; stroke-opacity: 0.5"/>
     <use xlink:href="#mb4a8880449" x="242.181818" y="300.06" style="fill: #aa8c00; fill-opacity: 0.5; stroke: #000000; stroke-opacity: 0.5"/>
     <use xlink:href="#mb4a8880449" x="242.181818" y="293.76" style="fill: #aa8c00; fill-opacity: 0.5; stroke: #000000; stroke-opacity: 0.5"/>
     <use xlink:href="#mb4a8880449" x="242.181818" y="287.46" style="fill: #aa8c00; fill-opacity: 0.5; stroke: #000000; stroke-opacity: 0.5"/>
     <use xlink:href="#mb4a8880449" x="369" y="237.06" style="fill: #aa8c00; fill-opacity: 0.5; stroke: #000000; stroke-opacity: 0.5"/>
     <use xlink:href="#mb4a8880449" x="369" y="230.76" style="fill: #aa8c00; fill-opacity: 0.5; stroke: #000000; stroke-opacity: 0.5"/>
     <use xlink:href="#mb4a8880449" x="369" y="224.46" style="fill: #aa8c00; fill-opacity: 0.5; stroke: #000000; stroke-opacity: 0.5"/>
     <use xlink:href="#mb4a8880449" x="495.818182" y="211.86" style="fill: #aa8c00; fill-opacity: 0.5; stroke: #000000; stroke-opacity: 0.5"/>
     <use xlink:href="#mb4a8880449" x="495.818182" y="205.56" style="fill: #aa8c00; fill-opacity: 0.5; stroke: #000000; stroke-opacity: 0.5"/>
     <use xlink:href="#mb4a8880449" x="495.818182" y="199.26" style="fill: #aa8c00; fill-opacity: 0.5; stroke: #000000; stroke-opacity: 0.5"/>
     <use xlink:href="#mb4a8880449" x="622.636364" y="205.56" style="fill: #aa8c00; fill-opacity: 0.5; stroke: #000000; stroke-opacity: 0.5"/>
     <use xlink:href="#mb4a8880449" x="622.636364" y="199.26" style="fill: #aa8c00; fill-opacity: 0.5; stroke: #000000; stroke-opacity: 0.5"/>
     <use xlink:href="#mb4a8880449" x="622.636364" y="192.96" style="fill: #aa8c00; fill-opacity: 0.5; stroke: #000000; stroke-opacity: 0.5"/>
    </g>
   </g>
   <g id="matplotlib.axis_1">
    <g id="xtick_1">
     <g id="line2d_1">
      <path d="M 115.363636 384.48 
L 115.363636 51.84 
" clip-path="url(#p204574bdc8)" style="fill: none; stroke: #808080; stroke-opacity: 0.1; stroke-width: 0.8; stroke-linecap: square"/>
     </g>
     <g id="line2d_2">
      <defs>
       <path id="mc56f6f637b" d="M 0 0 
L 0 3.5 
" style="stroke: #000000; stroke-width: 0.8"/>
      </defs>
      <g>
       <use xlink:href="#mc56f6f637b" x="115.363636" y="384.48" style="stroke: #000000; stroke-width: 0.8"/>
      </g>
     </g>
     <g id="text_1">
      <!-- 1 -->
      <g transform="translate(112.182386 399.078438) scale(0.1 -0.1)">
       <defs>
        <path id="DejaVuSans-31" d="M 794 531 
L 1825 531 
L 1825 4091 
L 703 3866 
L 703 4441 
L 1819 4666 
L 2450 4666 
L 2450 531 
L 3481 531 
L 3481 0 
L 794 0 
L 794 531 
z
" transform="scale(0.015625)"/>
       </defs>
       <use xlink:href="#DejaVuSans-31"/>
      </g>
     </g>
    </g>
    <g id="xtick_2">
     <g id="line2d_3">
      <path d="M 242.181818 384.48 
L 242.181818 51.84 
" clip-path="url(#p204574bdc8)" style="fill: none; stroke: #808080; stroke-opacity: 0.1; stroke-width: 0.8; stroke-linecap: square"/>
     </g>
     <g id="line2d_4">
      <g>
       <use xlink:href="#mc56f6f637b" x="242.181818" y="384.48" style="stroke: #000000; stroke-width: 0.8"/>
      </g>
     </g>
     <g id="text_2">
      <!-- 2 -->
      <g transform="translate(239.000568 399.078438) scale(0.1 -0.1)">
       <defs>
        <path id="DejaVuSans-32" d="M 1228 531 
L 3431 531 
L 3431 0 
L 469 0 
L 469 531 
Q 828 903 1448 1529 
Q 2069 2156 2228 2338 
Q 2531 2678 2651 2914 
Q 2772 3150 2772 3378 
Q 2772 3750 2511 3984 
Q 2250 4219 1831 4219 
Q 1534 4219 1204 4116 
Q 875 4013 500 3803 
L 500 4441 
Q 881 4594 1212 4672 
Q 1544 4750 1819 4750 
Q 2544 4750 2975 4387 
Q 3406 4025 3406 3419 
Q 3406 3131 3298 2873 
Q 3191 2616 2906 2266 
Q 2828 2175 2409 1742 
Q 1991 1309 1228 531 
z
" transform="scale(0.015625)"/>
       </defs>
       <use xlink:href="#DejaVuSans-32"/>
      </g>
     </g>
    </g>
    <g id="xtick_3">
     <g id="line2d_5">
      <path d="M 369 384.48 
L 369 51.84 
" clip-path="url(#p204574bdc8)" style="fill: none; stroke: #808080; stroke-opacity: 0.1; stroke-width: 0.8; stroke-linecap: square"/>
     </g>
     <g id="line2d_6">
      <g>
       <use xlink:href="#mc56f6f637b" x="369" y="384.48" style="stroke: #000000; stroke-width: 0.8"/>
      </g>
     </g>
     <g id="text_3">
      <!-- 3 -->
      <g transform="translate(365.81875 399.078438) scale(0.1 -0.1)">
       <defs>
        <path id="DejaVuSans-33" d="M 2597 2516 
Q 3050 2419 3304 2112 
Q 3559 1806 3559 1356 
Q 3559 666 3084 287 
Q 2609 -91 1734 -91 
Q 1441 -91 1130 -33 
Q 819 25 488 141 
L 488 750 
Q 750 597 1062 519 
Q 1375 441 1716 441 
Q 2309 441 2620 675 
Q 2931 909 2931 1356 
Q 2931 1769 2642 2001 
Q 2353 2234 1838 2234 
L 1294 2234 
L 1294 2753 
L 1863 2753 
Q 2328 2753 2575 2939 
Q 2822 3125 2822 3475 
Q 2822 3834 2567 4026 
Q 2313 4219 1838 4219 
Q 1578 4219 1281 4162 
Q 984 4106 628 3988 
L 628 4550 
Q 988 4650 1302 4700 
Q 1616 4750 1894 4750 
Q 2613 4750 3031 4423 
Q 3450 4097 3450 3541 
Q 3450 3153 3228 2886 
Q 3006 2619 2597 2516 
z
" transform="scale(0.015625)"/>
       </defs>
       <use xlink:href="#DejaVuSans-33"/>
      </g>
     </g>
    </g>
    <g id="xtick_4">
     <g id="line2d_7">
      <path d="M 495.818182 384.48 
L 495.818182 51.84 
" clip-path="url(#p204574bdc8)" style="fill: none; stroke: #808080; stroke-opacity: 0.1; stroke-width: 0.8; stroke-linecap: square"/>
     </g>
     <g id="line2d_8">
      <g>
       <use xlink:href="#mc56f6f637b" x="495.818182" y="384.48" style="stroke: #000000; stroke-width: 0.8"/>
      </g>
     </g>
     <g id="text_4">
      <!-- 4 -->
      <g transform="translate(492.636932 399.078438) scale(0.1 -0.1)">
       <defs>
        <path id="DejaVuSans-34" d="M 2419 4116 
L 825 1625 
L 2419 1625 
L 2419 4116 
z
M 2253 4666 
L 3047 4666 
L 3047 1625 
L 3713 1625 
L 3713 1100 
L 3047 1100 
L 3047 0 
L 2419 0 
L 2419 1100 
L 313 1100 
L 313 1709 
L 2253 4666 
z
" transform="scale(0.015625)"/>
       </defs>
       <use xlink:href="#DejaVuSans-34"/>
      </g>
     </g>
    </g>
    <g id="xtick_5">
     <g id="line2d_9">
      <path d="M 622.636364 384.48 
L 622.636364 51.84 
" clip-path="url(#p204574bdc8)" style="fill: none; stroke: #808080; stroke-opacity: 0.1; stroke-width: 0.8; stroke-linecap: square"/>
     </g>
     <g id="line2d_10">
      <g>
       <use xlink:href="#mc56f6f637b" x="622.636364" y="384.48" style="stroke: #000000; stroke-width: 0.8"/>
      </g>
     </g>
     <g id="text_5">
      <!-- 5 -->
      <g transform="translate(619.455114 399.078438) scale(0.1 -0.1)">
       <defs>
        <path id="DejaVuSans-35" d="M 691 4666 
L 3169 4666 
L 3169 4134 
L 1269 4134 
L 1269 2991 
Q 1406 3038 1543 3061 
Q 1681 3084 1819 3084 
Q 2600 3084 3056 2656 
Q 3513 2228 3513 1497 
Q 3513 744 3044 326 
Q 2575 -91 1722 -91 
Q 1428 -91 1123 -41 
Q 819 9 494 109 
L 494 744 
Q 775 591 1075 516 
Q 1375 441 1709 441 
Q 2250 441 2565 725 
Q 2881 1009 2881 1497 
Q 2881 1984 2565 2268 
Q 2250 2553 1709 2553 
Q 1456 2553 1204 2497 
Q 953 2441 691 2322 
L 691 4666 
z
" transform="scale(0.015625)"/>
       </defs>
       <use xlink:href="#DejaVuSans-35"/>
      </g>
     </g>
    </g>
    <g id="text_6">
     <!-- Number of rooms -->
     <g transform="translate(311.995937 416.156875) scale(0.14 -0.14)">
      <defs>
       <path id="ComicSansMS-4e" d="M 4816 694 
Q 4816 544 4766 194 
Q 4716 -122 4431 -122 
Q 4259 -122 4022 103 
Q 2750 1306 1103 3575 
L 1088 2866 
L 1078 2153 
Q 1078 1894 1089 1375 
Q 1100 856 1100 594 
Q 1100 -247 775 -247 
Q 603 -247 503 -138 
Q 413 -41 413 94 
Q 413 225 433 490 
Q 453 756 453 888 
Q 453 1081 465 1467 
Q 478 1853 478 2047 
Q 478 2253 468 2670 
Q 459 3088 459 3294 
Q 459 3491 421 3880 
Q 384 4269 384 4466 
Q 384 4609 507 4728 
Q 631 4847 788 4847 
Q 953 4847 1197 4484 
Q 1975 3319 2597 2547 
Q 3338 1631 4222 797 
Q 4231 931 4222 1194 
L 4213 1588 
Q 4213 2959 4106 3772 
Q 4094 3853 4022 4100 
Q 3959 4313 3959 4431 
Q 3959 4794 4291 4794 
Q 4834 4794 4834 2766 
Q 4834 2419 4825 1730 
Q 4816 1041 4816 694 
z
" transform="scale(0.015625)"/>
       <path id="ComicSansMS-75" d="M 2984 1825 
Q 2984 1600 2987 1150 
Q 2991 700 2991 475 
Q 2991 406 3002 265 
Q 3013 125 3013 56 
Q 3013 -78 2922 -164 
Q 2831 -250 2700 -250 
Q 2459 -250 2394 47 
Q 2003 -156 1494 -156 
Q 1084 -156 816 25 
Q 519 225 463 609 
Q 341 1438 341 2084 
Q 341 2513 434 3059 
Q 478 3331 731 3331 
Q 866 3331 956 3245 
Q 1047 3159 1047 3025 
Q 1047 2881 1001 2565 
Q 956 2250 956 2084 
Q 956 1563 990 1191 
Q 1025 819 1094 594 
Q 1197 538 1297 508 
Q 1397 478 1494 478 
Q 1913 478 2378 613 
L 2375 1247 
L 2369 1853 
Q 2369 2528 2428 3025 
Q 2463 3313 2731 3313 
Q 2866 3313 2956 3225 
Q 3047 3138 3041 3006 
L 2984 1825 
z
" transform="scale(0.015625)"/>
       <path id="ComicSansMS-6d" d="M 4403 -259 
Q 4147 -259 4103 13 
Q 4047 356 3991 981 
L 3884 1950 
Q 3853 2166 3778 2372 
Q 3672 2653 3547 2653 
Q 3431 2653 3116 2456 
Q 2816 2275 2722 2166 
Q 2719 1872 2738 1578 
L 2831 744 
Q 2891 250 2891 -72 
Q 2891 -209 2805 -298 
Q 2719 -388 2584 -388 
Q 2450 -388 2364 -298 
Q 2278 -209 2278 -72 
Q 2278 306 2201 1045 
Q 2125 1784 2125 2163 
Q 2125 2494 2031 2678 
Q 1813 2578 1588 2353 
L 1219 1941 
Q 1169 1866 1059 1744 
Q 1059 1556 1025 1190 
Q 991 825 991 650 
Q 991 556 1020 387 
Q 1050 219 1050 144 
Q 1050 16 954 -71 
Q 859 -159 731 -159 
Q 378 -159 378 644 
Q 378 831 412 1203 
Q 447 1575 447 1763 
Q 447 1928 417 2259 
Q 388 2591 388 2759 
Q 388 3469 706 3469 
Q 828 3469 929 3362 
Q 1031 3256 1031 3131 
Q 1031 3072 1015 2947 
Q 1000 2822 1000 2756 
L 1006 2428 
Q 1169 2763 1484 3033 
Q 1800 3303 2022 3303 
Q 2513 3303 2697 2816 
Q 2869 3044 3106 3158 
Q 3344 3272 3650 3272 
Q 4172 3272 4363 2709 
Q 4400 2597 4491 1831 
Q 4578 1294 4716 41 
Q 4725 -84 4631 -171 
Q 4538 -259 4403 -259 
z
" transform="scale(0.015625)"/>
       <path id="ComicSansMS-62" d="M 1894 -131 
Q 1416 -131 1025 56 
Q 925 -94 781 -94 
Q 663 -94 580 -11 
Q 497 72 497 197 
Q 497 278 505 437 
Q 513 597 513 678 
Q 513 1009 495 1670 
Q 478 2331 478 2663 
Q 478 2891 481 3527 
Q 484 4163 484 4394 
Q 484 4581 563 4731 
Q 666 4922 847 4922 
Q 1081 4922 1081 4650 
Q 1081 4606 1065 4522 
Q 1050 4438 1050 4394 
L 1041 3709 
L 1034 2913 
Q 1306 3097 1551 3189 
Q 1797 3281 2013 3281 
Q 2684 3281 3103 2766 
Q 3497 2281 3497 1575 
Q 3497 863 3037 366 
Q 2578 -131 1894 -131 
z
M 2013 2691 
Q 1756 2691 1488 2547 
Q 1356 2475 1038 2238 
L 1031 1697 
L 1034 1209 
L 1038 697 
Q 1188 628 1459 522 
Q 1653 463 1894 463 
Q 2347 463 2637 781 
Q 2928 1100 2928 1575 
Q 2928 2041 2694 2353 
Q 2441 2691 2013 2691 
z
" transform="scale(0.015625)"/>
       <path id="ComicSansMS-65" d="M 1894 -144 
Q 1188 -144 750 209 
Q 272 600 272 1303 
Q 272 2116 666 2666 
Q 1094 3266 1809 3266 
Q 2328 3266 2656 3091 
Q 3059 2875 3059 2428 
Q 3059 2116 2706 1859 
Q 2550 1747 2044 1509 
L 850 944 
Q 1025 684 1286 553 
Q 1547 422 1894 422 
Q 2109 422 2400 503 
Q 2769 606 2875 773 
Q 2981 941 3103 941 
Q 3213 941 3298 858 
Q 3384 775 3384 666 
Q 3384 319 2825 69 
Q 2347 -144 1894 -144 
z
M 1809 2703 
Q 1428 2703 1175 2408 
Q 922 2113 797 1519 
L 1756 1975 
Q 2322 2250 2563 2453 
Q 2294 2703 1809 2703 
z
" transform="scale(0.015625)"/>
       <path id="ComicSansMS-72" d="M 2866 2309 
Q 2844 1919 2553 1919 
Q 2284 1919 2284 2228 
Q 2284 2288 2275 2447 
L 2266 2709 
Q 1772 2650 1475 2431 
Q 1197 2228 1013 1819 
L 1019 106 
Q 1019 -209 709 -209 
Q 434 -209 434 106 
L 434 2300 
Q 434 2403 442 2609 
Q 450 2816 450 2919 
Q 450 3234 725 3234 
Q 1031 3234 1034 2716 
Q 1634 3294 2366 3294 
Q 2619 3294 2744 3103 
Q 2869 2913 2869 2528 
Q 2869 2366 2866 2309 
z
" transform="scale(0.015625)"/>
       <path id="ComicSansMS-20" transform="scale(0.015625)"/>
       <path id="ComicSansMS-6f" d="M 1606 -184 
Q 1081 -184 703 203 
Q 281 634 259 1363 
Q 241 2069 616 2606 
Q 1053 3241 1834 3241 
Q 2459 3241 2781 2669 
Q 3038 2206 3028 1556 
Q 3019 863 2666 372 
Q 2266 -184 1606 -184 
z
M 1794 2606 
Q 1334 2609 1078 2169 
Q 875 1816 875 1363 
Q 875 909 1122 656 
Q 1328 447 1606 447 
Q 1931 447 2166 684 
Q 2431 947 2447 1394 
Q 2491 2603 1794 2606 
z
" transform="scale(0.015625)"/>
       <path id="ComicSansMS-66" d="M 2534 4394 
Q 1778 4394 1688 3344 
L 1678 3150 
Q 2209 3188 2366 3188 
Q 2863 3188 2863 2875 
Q 2863 2647 2619 2603 
Q 2513 2584 2370 2589 
Q 2228 2594 1650 2547 
L 1625 1834 
Q 1625 1641 1637 1253 
Q 1650 866 1650 675 
Q 1650 81 1581 -250 
Q 1528 -500 1291 -500 
Q 1163 -500 1072 -417 
Q 981 -334 981 -209 
Q 981 -184 988 -147 
Q 1053 259 1053 738 
L 1044 1591 
L 1044 2497 
Q 653 2466 550 2466 
Q 234 2466 234 2769 
Q 234 3078 781 3094 
L 1081 3103 
Q 1091 3278 1128 3578 
Q 1209 4272 1478 4600 
Q 1803 4997 2494 4997 
Q 2941 4997 2941 4694 
Q 2941 4394 2534 4394 
z
" transform="scale(0.015625)"/>
       <path id="ComicSansMS-73" d="M 2544 2406 
Q 2372 2406 2303 2522 
Q 2256 2603 2222 2859 
Q 1988 2800 1500 2641 
Q 997 2441 994 2147 
Q 1088 2113 1178 2097 
Q 1897 1969 2247 1744 
Q 2756 1416 2756 794 
Q 2756 284 2316 25 
Q 1950 -188 1391 -188 
Q 981 -188 609 -50 
Q 128 125 128 438 
Q 128 563 226 656 
Q 325 750 450 750 
Q 547 750 700 600 
Q 775 528 1038 481 
Q 1247 444 1391 444 
Q 1653 444 1853 506 
Q 2144 597 2144 794 
Q 2144 1219 1550 1369 
L 1225 1441 
Q 809 1531 634 1653 
Q 381 1828 381 2181 
Q 381 2834 997 3113 
Q 1184 3197 1596 3314 
Q 2009 3431 2188 3513 
Q 2316 3569 2466 3569 
Q 2600 3569 2686 3481 
Q 2772 3394 2772 3253 
Q 2772 3163 2811 2988 
Q 2850 2813 2850 2722 
Q 2850 2581 2764 2493 
Q 2678 2406 2544 2406 
z
" transform="scale(0.015625)"/>
      </defs>
      <use xlink:href="#ComicSansMS-4e"/>
      <use xlink:href="#ComicSansMS-75" transform="translate(79.6875 0)"/>
      <use xlink:href="#ComicSansMS-6d" transform="translate(131.689453 0)"/>
      <use xlink:href="#ComicSansMS-62" transform="translate(209.375 0)"/>
      <use xlink:href="#ComicSansMS-65" transform="translate(268.701172 0)"/>
      <use xlink:href="#ComicSansMS-72" transform="translate(323.486328 0)"/>
      <use xlink:href="#ComicSansMS-20" transform="translate(371.533203 0)"/>
      <use xlink:href="#ComicSansMS-6f" transform="translate(401.416016 0)"/>
      <use xlink:href="#ComicSansMS-66" transform="translate(454.003906 0)"/>
      <use xlink:href="#ComicSansMS-20" transform="translate(504.833984 0)"/>
      <use xlink:href="#ComicSansMS-72" transform="translate(534.716797 0)"/>
      <use xlink:href="#ComicSansMS-6f" transform="translate(582.763672 0)"/>
      <use xlink:href="#ComicSansMS-6f" transform="translate(635.351562 0)"/>
      <use xlink:href="#ComicSansMS-6d" transform="translate(687.939453 0)"/>
      <use xlink:href="#ComicSansMS-73" transform="translate(765.625 0)"/>
     </g>
    </g>
   </g>
   <g id="matplotlib.axis_2">
    <g id="ytick_1">
     <g id="line2d_11">
      <path d="M 90 363.06 
L 648 363.06 
" clip-path="url(#p204574bdc8)" style="fill: none; stroke: #808080; stroke-opacity: 0.1; stroke-width: 0.8; stroke-linecap: square"/>
     </g>
     <g id="line2d_12">
      <defs>
       <path id="mbaf126b370" d="M 0 0 
L -3.5 0 
" style="stroke: #000000; stroke-width: 0.8"/>
      </defs>
      <g>
       <use xlink:href="#mbaf126b370" x="90" y="363.06" style="stroke: #000000; stroke-width: 0.8"/>
      </g>
     </g>
     <g id="text_7">
      <!-- 10000 -->
      <g transform="translate(51.1875 366.859219) scale(0.1 -0.1)">
       <defs>
        <path id="DejaVuSans-30" d="M 2034 4250 
Q 1547 4250 1301 3770 
Q 1056 3291 1056 2328 
Q 1056 1369 1301 889 
Q 1547 409 2034 409 
Q 2525 409 2770 889 
Q 3016 1369 3016 2328 
Q 3016 3291 2770 3770 
Q 2525 4250 2034 4250 
z
M 2034 4750 
Q 2819 4750 3233 4129 
Q 3647 3509 3647 2328 
Q 3647 1150 3233 529 
Q 2819 -91 2034 -91 
Q 1250 -91 836 529 
Q 422 1150 422 2328 
Q 422 3509 836 4129 
Q 1250 4750 2034 4750 
z
" transform="scale(0.015625)"/>
       </defs>
       <use xlink:href="#DejaVuSans-31"/>
       <use xlink:href="#DejaVuSans-30" transform="translate(63.623047 0)"/>
       <use xlink:href="#DejaVuSans-30" transform="translate(127.246094 0)"/>
       <use xlink:href="#DejaVuSans-30" transform="translate(190.869141 0)"/>
       <use xlink:href="#DejaVuSans-30" transform="translate(254.492188 0)"/>
      </g>
     </g>
    </g>
    <g id="ytick_2">
     <g id="line2d_13">
      <path d="M 90 300.06 
L 648 300.06 
" clip-path="url(#p204574bdc8)" style="fill: none; stroke: #808080; stroke-opacity: 0.1; stroke-width: 0.8; stroke-linecap: square"/>
     </g>
     <g id="line2d_14">
      <g>
       <use xlink:href="#mbaf126b370" x="90" y="300.06" style="stroke: #000000; stroke-width: 0.8"/>
      </g>
     </g>
     <g id="text_8">
      <!-- 20000 -->
      <g transform="translate(51.1875 303.859219) scale(0.1 -0.1)">
       <use xlink:href="#DejaVuSans-32"/>
       <use xlink:href="#DejaVuSans-30" transform="translate(63.623047 0)"/>
       <use xlink:href="#DejaVuSans-30" transform="translate(127.246094 0)"/>
       <use xlink:href="#DejaVuSans-30" transform="translate(190.869141 0)"/>
       <use xlink:href="#DejaVuSans-30" transform="translate(254.492188 0)"/>
      </g>
     </g>
    </g>
    <g id="ytick_3">
     <g id="line2d_15">
      <path d="M 90 237.06 
L 648 237.06 
" clip-path="url(#p204574bdc8)" style="fill: none; stroke: #808080; stroke-opacity: 0.1; stroke-width: 0.8; stroke-linecap: square"/>
     </g>
     <g id="line2d_16">
      <g>
       <use xlink:href="#mbaf126b370" x="90" y="237.06" style="stroke: #000000; stroke-width: 0.8"/>
      </g>
     </g>
     <g id="text_9">
      <!-- 30000 -->
      <g transform="translate(51.1875 240.859219) scale(0.1 -0.1)">
       <use xlink:href="#DejaVuSans-33"/>
       <use xlink:href="#DejaVuSans-30" transform="translate(63.623047 0)"/>
       <use xlink:href="#DejaVuSans-30" transform="translate(127.246094 0)"/>
       <use xlink:href="#DejaVuSans-30" transform="translate(190.869141 0)"/>
       <use xlink:href="#DejaVuSans-30" transform="translate(254.492188 0)"/>
      </g>
     </g>
    </g>
    <g id="ytick_4">
     <g id="line2d_17">
      <path d="M 90 174.06 
L 648 174.06 
" clip-path="url(#p204574bdc8)" style="fill: none; stroke: #808080; stroke-opacity: 0.1; stroke-width: 0.8; stroke-linecap: square"/>
     </g>
     <g id="line2d_18">
      <g>
       <use xlink:href="#mbaf126b370" x="90" y="174.06" style="stroke: #000000; stroke-width: 0.8"/>
      </g>
     </g>
     <g id="text_10">
      <!-- 40000 -->
      <g transform="translate(51.1875 177.859219) scale(0.1 -0.1)">
       <use xlink:href="#DejaVuSans-34"/>
       <use xlink:href="#DejaVuSans-30" transform="translate(63.623047 0)"/>
       <use xlink:href="#DejaVuSans-30" transform="translate(127.246094 0)"/>
       <use xlink:href="#DejaVuSans-30" transform="translate(190.869141 0)"/>
       <use xlink:href="#DejaVuSans-30" transform="translate(254.492188 0)"/>
      </g>
     </g>
    </g>
    <g id="ytick_5">
     <g id="line2d_19">
      <path d="M 90 111.06 
L 648 111.06 
" clip-path="url(#p204574bdc8)" style="fill: none; stroke: #808080; stroke-opacity: 0.1; stroke-width: 0.8; stroke-linecap: square"/>
     </g>
     <g id="line2d_20">
      <g>
       <use xlink:href="#mbaf126b370" x="90" y="111.06" style="stroke: #000000; stroke-width: 0.8"/>
      </g>
     </g>
     <g id="text_11">
      <!-- 50000 -->
      <g transform="translate(51.1875 114.859219) scale(0.1 -0.1)">
       <use xlink:href="#DejaVuSans-35"/>
       <use xlink:href="#DejaVuSans-30" transform="translate(63.623047 0)"/>
       <use xlink:href="#DejaVuSans-30" transform="translate(127.246094 0)"/>
       <use xlink:href="#DejaVuSans-30" transform="translate(190.869141 0)"/>
       <use xlink:href="#DejaVuSans-30" transform="translate(254.492188 0)"/>
      </g>
     </g>
    </g>
    <g id="text_12">
     <!-- Price, $ -->
     <g transform="translate(43.215 243.444219) rotate(-90) scale(0.14 -0.14)">
      <defs>
       <path id="ComicSansMS-50" d="M 1291 1834 
Q 1203 1834 909 1875 
Q 884 1403 884 222 
Q 884 97 803 11 
Q 722 -75 600 -75 
Q 475 -75 394 11 
Q 313 97 313 222 
L 313 1141 
Q 313 1600 369 2434 
Q 431 3338 438 3728 
L 438 4159 
Q 438 4469 475 4609 
Q 547 4884 781 4847 
Q 881 4878 1065 4893 
Q 1250 4909 1519 4909 
Q 2091 4909 2591 4519 
Q 3141 4088 3141 3481 
Q 3141 2706 2553 2247 
Q 2028 1834 1291 1834 
z
M 1447 4316 
Q 1309 4316 1201 4309 
Q 1094 4303 1019 4291 
L 1013 3716 
L 947 2472 
L 1291 2431 
Q 1816 2431 2175 2697 
Q 2569 2988 2569 3481 
Q 2569 3831 2194 4084 
Q 1847 4316 1447 4316 
z
" transform="scale(0.015625)"/>
       <path id="ComicSansMS-69" d="M 1031 3956 
Q 881 3956 772 4062 
Q 663 4169 663 4319 
Q 663 4469 772 4575 
Q 881 4681 1031 4681 
Q 1181 4681 1289 4575 
Q 1397 4469 1397 4319 
Q 1397 4169 1289 4062 
Q 1181 3956 1031 3956 
z
M 1172 1419 
Q 1172 1231 1183 857 
Q 1194 484 1194 297 
Q 1194 159 1109 71 
Q 1025 -16 888 -16 
Q 753 -16 667 71 
Q 581 159 581 297 
Q 581 484 570 857 
Q 559 1231 559 1419 
Q 559 1713 590 2152 
Q 622 2591 622 2884 
Q 622 3025 708 3112 
Q 794 3200 928 3200 
Q 1063 3200 1148 3112 
Q 1234 3025 1234 2884 
Q 1234 2591 1203 2152 
Q 1172 1713 1172 1419 
z
" transform="scale(0.015625)"/>
       <path id="ComicSansMS-63" d="M 1847 -197 
Q 1206 -197 778 191 
Q 328 597 328 1263 
Q 328 1897 750 2572 
Q 1219 3322 1806 3322 
Q 2113 3322 2491 3178 
Q 2969 2994 2969 2728 
Q 2969 2609 2891 2517 
Q 2813 2425 2697 2425 
Q 2606 2425 2539 2479 
Q 2472 2534 2409 2588 
Q 2225 2734 1806 2734 
Q 1488 2734 1175 2166 
Q 891 1644 891 1263 
Q 891 850 1172 613 
Q 1434 391 1847 391 
Q 2034 391 2247 491 
L 2609 684 
Q 2703 734 2744 734 
Q 2859 734 2943 642 
Q 3028 550 3028 431 
Q 3028 203 2547 -9 
Q 2125 -197 1847 -197 
z
" transform="scale(0.015625)"/>
       <path id="ComicSansMS-2c" d="M 891 -1075 
Q 781 -1075 700 -990 
Q 619 -906 619 -797 
Q 619 -706 813 -259 
Q 981 128 1072 294 
Q 1153 444 1288 444 
Q 1400 444 1479 358 
Q 1559 272 1559 163 
Q 1559 88 1116 -906 
Q 1044 -1075 891 -1075 
z
" transform="scale(0.015625)"/>
       <path id="ComicSansMS-24" d="M 1838 2772 
L 1838 3894 
Q 1216 3659 1216 3169 
Q 1216 2866 1838 2772 
z
M 2394 2113 
L 2394 488 
Q 2725 600 2947 819 
Q 3194 1069 3194 1359 
Q 3194 1903 2394 2113 
z
M 2394 5113 
L 2394 4584 
L 2406 4584 
Q 2706 4584 3091 4481 
Q 3594 4347 3594 4138 
Q 3594 3863 3316 3863 
Q 3191 3863 2877 3930 
Q 2563 3997 2394 3994 
L 2394 2722 
Q 3084 2659 3475 2269 
Q 3831 1906 3831 1394 
Q 3831 766 3397 353 
Q 3013 -9 2394 -125 
L 2394 -956 
Q 2394 -1078 2314 -1158 
Q 2234 -1238 2113 -1238 
Q 1838 -1238 1838 -963 
L 1838 -166 
Q 313 -144 313 625 
Q 313 906 572 906 
Q 719 906 853 791 
Q 1053 619 1156 566 
Q 1406 441 1838 422 
L 1838 2194 
L 1813 2194 
Q 1328 2213 975 2431 
Q 538 2700 538 3178 
Q 538 3606 938 3984 
Q 1306 4334 1838 4494 
L 1838 5094 
Q 1838 5216 1920 5297 
Q 2003 5378 2125 5378 
Q 2394 5378 2394 5113 
z
" transform="scale(0.015625)"/>
      </defs>
      <use xlink:href="#ComicSansMS-50"/>
      <use xlink:href="#ComicSansMS-72" transform="translate(52.050781 0)"/>
      <use xlink:href="#ComicSansMS-69" transform="translate(100.097656 0)"/>
      <use xlink:href="#ComicSansMS-63" transform="translate(128.125 0)"/>
      <use xlink:href="#ComicSansMS-65" transform="translate(179.492188 0)"/>
      <use xlink:href="#ComicSansMS-2c" transform="translate(234.277344 0)"/>
      <use xlink:href="#ComicSansMS-20" transform="translate(261.962891 0)"/>
      <use xlink:href="#ComicSansMS-24" transform="translate(291.845703 0)"/>
     </g>
    </g>
   </g>
   <g id="patch_3">
    <path d="M 90 384.48 
L 90 51.84 
" style="fill: none; stroke: #000000; stroke-width: 0.8; stroke-linejoin: miter; stroke-linecap: square"/>
   </g>
   <g id="patch_4">
    <path d="M 648 384.48 
L 648 51.84 
" style="fill: none; stroke: #000000; stroke-width: 0.8; stroke-linejoin: miter; stroke-linecap: square"/>
   </g>
   <g id="patch_5">
    <path d="M 90 384.48 
L 648 384.48 
" style="fill: none; stroke: #000000; stroke-width: 0.8; stroke-linejoin: miter; stroke-linecap: square"/>
   </g>
   <g id="patch_6">
    <path d="M 90 51.84 
L 648 51.84 
" style="fill: none; stroke: #000000; stroke-width: 0.8; stroke-linejoin: miter; stroke-linecap: square"/>
   </g>
  </g>
  <g id="text_13">
   <!-- All available data D. The statistical population including datasets A, B, and C -->
   <g transform="translate(76.60375 21.21) scale(0.16 -0.16)">
    <defs>
     <path id="ComicSansMS-41" d="M 3906 -94 
Q 3619 -94 3406 644 
Q 3325 925 3203 1628 
Q 2884 1584 2369 1472 
L 1538 1300 
Q 1381 891 1003 103 
Q 903 -72 731 -72 
Q 606 -72 507 18 
Q 409 109 409 244 
Q 409 394 881 1384 
Q 828 1466 828 1572 
Q 828 1825 1134 1897 
Q 1491 2566 2034 3434 
Q 2775 4619 2956 4619 
Q 3203 4619 3294 4275 
L 3491 3225 
L 3956 1053 
L 4134 559 
Q 4225 306 4225 222 
Q 4225 88 4128 -3 
Q 4031 -94 3906 -94 
z
M 2803 3478 
L 1909 2038 
Q 2288 2134 3056 2272 
L 2803 3478 
z
" transform="scale(0.015625)"/>
     <path id="ComicSansMS-6c" d="M 1228 2456 
L 1181 903 
Q 1181 656 1156 178 
Q 1125 -134 850 -134 
Q 544 -134 544 184 
Q 544 563 578 1320 
Q 613 2078 613 2456 
Q 613 2950 628 3586 
Q 644 4222 644 4716 
Q 644 5028 950 5028 
Q 1259 5028 1259 4716 
Q 1259 4222 1243 3586 
Q 1228 2950 1228 2456 
z
" transform="scale(0.015625)"/>
     <path id="ComicSansMS-61" d="M 2875 -206 
Q 2816 -206 2659 -69 
Q 2519 59 2450 159 
Q 2150 -3 1922 -86 
Q 1694 -169 1541 -169 
Q 809 -169 475 244 
Q 159 631 159 1431 
Q 159 2188 679 2725 
Q 1200 3263 1922 3263 
Q 2194 3263 2531 3122 
Q 2956 2947 2956 2700 
Q 2956 2616 2894 2550 
Q 2863 2431 2845 2159 
Q 2828 1888 2825 1463 
Q 2822 1075 2878 850 
Q 2909 713 3075 300 
Q 3097 244 3147 134 
L 3166 81 
Q 3166 -44 3078 -125 
Q 2991 -206 2875 -206 
z
M 2225 1966 
Q 2225 2100 2242 2258 
Q 2259 2416 2294 2594 
Q 2178 2653 2095 2681 
Q 2013 2709 1963 2709 
Q 1478 2709 1126 2314 
Q 775 1919 775 1403 
Q 775 891 956 634 
Q 1138 378 1500 378 
Q 1800 378 2009 488 
Q 2122 547 2325 725 
Q 2225 1553 2225 1966 
z
" transform="scale(0.015625)"/>
     <path id="ComicSansMS-76" d="M 1875 163 
Q 1866 -125 1591 -125 
Q 1363 -125 1259 144 
L 781 1413 
L 225 2847 
Q 194 2928 194 2991 
Q 194 3119 291 3209 
Q 388 3300 516 3300 
Q 703 3300 784 3109 
L 1578 925 
Q 1813 1425 2169 2375 
Q 2253 2625 2434 3081 
Q 2531 3281 2709 3281 
Q 2838 3281 2934 3190 
Q 3031 3100 3031 2975 
Q 3031 2856 2516 1638 
L 1875 163 
z
" transform="scale(0.015625)"/>
     <path id="ComicSansMS-64" d="M 3313 2759 
Q 3275 2300 3275 1841 
Q 3275 800 3372 269 
Q 3378 225 3378 197 
Q 3378 72 3290 -9 
Q 3203 -91 3088 -91 
Q 2894 -91 2803 191 
Q 2578 25 2336 -59 
Q 2094 -144 1831 -144 
Q 1184 -144 759 288 
Q 322 728 322 1419 
Q 322 2253 764 2756 
Q 1206 3259 1913 3259 
Q 2275 3259 2472 3147 
L 2766 2931 
Q 2809 4247 2869 4703 
Q 2909 4981 3153 4981 
Q 3438 4981 3438 4678 
Q 3438 4244 3313 2759 
z
M 1925 2678 
Q 1400 2678 1137 2367 
Q 875 2056 875 1431 
Q 875 1028 1161 737 
Q 1447 447 1831 447 
Q 2094 447 2275 544 
Q 2381 600 2622 803 
Q 2669 844 2713 900 
L 2703 1441 
L 2706 1803 
L 2713 2172 
Q 2594 2425 2397 2551 
Q 2200 2678 1925 2678 
z
" transform="scale(0.015625)"/>
     <path id="ComicSansMS-74" d="M 2525 2663 
Q 2459 2663 2370 2669 
Q 2281 2675 2216 2675 
Q 2144 2675 1791 2628 
L 1850 781 
L 1853 644 
L 1856 484 
Q 1869 -200 1528 -200 
Q 1403 -200 1311 -119 
Q 1219 -38 1219 84 
Q 1219 203 1228 440 
Q 1238 678 1238 797 
L 1175 2622 
Q 947 2631 481 2675 
Q 203 2713 203 2984 
Q 203 3122 287 3212 
Q 372 3303 503 3303 
L 1159 3250 
Q 1159 3409 1145 3676 
Q 1131 3944 1131 4063 
Q 1131 4194 1222 4280 
Q 1313 4366 1444 4366 
Q 1725 4366 1772 3906 
Q 1781 3791 1781 3628 
L 1775 3447 
L 1772 3253 
Q 2159 3303 2216 3303 
Q 2541 3303 2641 3272 
Q 2831 3209 2831 2978 
Q 2831 2841 2745 2752 
Q 2659 2663 2525 2663 
z
" transform="scale(0.015625)"/>
     <path id="ComicSansMS-44" d="M 3363 22 
Q 2878 -309 1972 -309 
Q 1744 -309 1450 -238 
Q 1097 -153 919 -19 
L 888 -19 
Q 753 -19 662 75 
Q 572 169 572 303 
Q 572 631 601 1286 
Q 631 1941 631 2269 
Q 631 2634 617 3361 
Q 603 4088 603 4453 
Q 603 4581 734 4722 
Q 866 4863 997 4863 
Q 1072 4863 1497 4653 
Q 1978 4419 2053 4394 
Q 2941 4091 3566 3463 
Q 4300 2722 4300 1834 
Q 4300 1300 4048 809 
Q 3797 319 3363 22 
z
M 2706 3328 
Q 2388 3538 1234 4047 
L 1250 3147 
L 1259 2250 
L 1209 544 
Q 1231 534 1275 503 
Q 1550 319 1969 319 
Q 2681 319 3006 538 
Q 3309 744 3489 1092 
Q 3669 1441 3669 1819 
Q 3669 2700 2706 3328 
z
" transform="scale(0.015625)"/>
     <path id="ComicSansMS-2e" d="M 834 -291 
Q 672 -291 559 -178 
Q 447 -66 447 97 
Q 447 256 559 370 
Q 672 484 834 484 
Q 994 484 1108 370 
Q 1222 256 1222 97 
Q 1222 -66 1108 -178 
Q 994 -291 834 -291 
z
" transform="scale(0.015625)"/>
     <path id="ComicSansMS-54" d="M 4256 3947 
Q 4025 3947 3544 3984 
Q 3075 4019 2831 4016 
L 2609 4016 
Q 2619 3584 2694 2616 
Q 2763 1713 2763 1213 
Q 2763 1103 2784 881 
Q 2806 659 2806 547 
Q 2806 334 2738 181 
Q 2650 -25 2466 -25 
Q 2341 -25 2241 62 
Q 2141 150 2141 288 
Q 2141 334 2156 428 
Q 2172 522 2172 569 
Q 2172 722 2151 1028 
Q 2131 1334 2131 1491 
Q 2131 1938 2059 2747 
Q 1984 3622 1975 4003 
L 1691 4000 
Q 1006 4000 616 4100 
Q 363 4166 363 4409 
Q 363 4538 444 4634 
Q 538 4744 684 4734 
Q 794 4728 1184 4678 
Q 1497 4641 1691 4641 
Q 1878 4641 2259 4648 
Q 2641 4656 2828 4656 
Q 3069 4656 3542 4622 
Q 4016 4588 4256 4588 
Q 4391 4588 4481 4495 
Q 4572 4403 4572 4266 
Q 4572 4131 4481 4039 
Q 4391 3947 4256 3947 
z
" transform="scale(0.015625)"/>
     <path id="ComicSansMS-68" d="M 3050 -194 
Q 2828 -194 2759 44 
Q 2688 300 2628 772 
Q 2572 1225 2572 1516 
Q 2572 1597 2580 1762 
Q 2588 1928 2588 2009 
Q 2588 2597 2294 2597 
Q 1897 2597 1584 2238 
Q 1425 2053 1147 1534 
Q 1147 344 1047 125 
Q 959 -69 775 -69 
Q 647 -69 550 18 
Q 453 106 453 231 
Q 453 275 481 369 
Q 506 447 516 825 
L 525 1288 
L 534 3584 
Q 556 3972 556 4106 
Q 556 4266 526 4408 
Q 497 4550 497 4703 
Q 497 4834 587 4920 
Q 678 5006 809 5006 
Q 1066 5006 1109 4731 
Q 1159 4428 1159 4184 
Q 1159 3856 1138 3500 
Q 1119 3159 1122 2816 
L 1125 2541 
Q 1381 2884 1673 3054 
Q 1966 3225 2294 3225 
Q 2813 3225 3006 2888 
Q 3144 2650 3163 2088 
L 3188 1491 
L 3250 841 
Q 3294 475 3356 197 
Q 3369 144 3369 106 
Q 3369 -22 3275 -108 
Q 3181 -194 3050 -194 
z
" transform="scale(0.015625)"/>
     <path id="ComicSansMS-70" d="M 1763 -109 
Q 1450 -109 1075 -9 
L 1069 -1503 
Q 1069 -1641 983 -1728 
Q 897 -1816 763 -1816 
Q 628 -1816 542 -1728 
Q 456 -1641 456 -1503 
L 466 -253 
L 466 994 
Q 456 1678 419 2241 
L 372 2875 
Q 372 3097 453 3250 
Q 547 3434 725 3434 
Q 847 3434 930 3348 
Q 1013 3263 1013 3138 
Q 1013 3109 1003 3034 
Q 988 2938 981 2856 
Q 1250 3041 1500 3133 
Q 1750 3225 1978 3225 
Q 2619 3225 2916 2656 
Q 3150 2206 3150 1466 
Q 3150 791 2788 353 
Q 2403 -109 1763 -109 
z
M 1978 2600 
Q 1691 2600 1459 2472 
Q 1294 2381 1041 2141 
Q 1081 1431 1081 650 
Q 1422 519 1763 519 
Q 2153 519 2359 809 
Q 2538 1063 2538 1466 
Q 2538 2034 2398 2317 
Q 2259 2600 1978 2600 
z
" transform="scale(0.015625)"/>
     <path id="ComicSansMS-6e" d="M 2831 -222 
Q 2563 -222 2528 72 
L 2441 756 
Q 2397 1122 2397 1441 
Q 2397 1528 2408 1737 
Q 2419 1947 2419 2034 
Q 2419 2709 2169 2709 
Q 1819 2709 1500 2294 
Q 1213 1916 1050 1338 
Q 1044 1216 1022 1031 
Q 1003 875 1003 728 
Q 1003 634 1022 446 
Q 1041 259 1041 166 
Q 1041 25 955 -62 
Q 869 -150 734 -150 
Q 597 -150 512 -62 
Q 428 25 428 166 
Q 428 259 408 446 
Q 388 634 388 728 
Q 388 1050 433 1620 
Q 478 2191 478 2513 
Q 478 2613 467 2809 
Q 456 3006 456 3106 
Q 456 3241 545 3327 
Q 634 3413 766 3413 
Q 1053 3413 1081 3006 
L 1091 2641 
Q 1616 3341 2169 3341 
Q 2669 3341 2866 2900 
Q 3000 2606 3013 2031 
L 3013 1716 
L 3009 1425 
Q 3009 1166 3076 755 
Q 3144 344 3144 88 
Q 3144 -50 3055 -136 
Q 2966 -222 2831 -222 
z
" transform="scale(0.015625)"/>
     <path id="ComicSansMS-67" d="M 3006 1347 
L 2934 297 
Q 2916 -328 2806 -725 
Q 2666 -1231 2356 -1472 
Q 1981 -1763 1272 -1763 
Q 856 -1763 575 -1706 
Q 181 -1628 181 -1381 
Q 181 -1103 453 -1103 
Q 566 -1103 828 -1158 
Q 1091 -1213 1409 -1206 
Q 2009 -1197 2238 -625 
Q 2388 -244 2397 547 
Q 2228 234 1995 78 
Q 1763 -78 1463 -78 
Q 897 -78 542 308 
Q 188 694 188 1309 
Q 188 2153 672 2669 
Q 1172 3200 2034 3200 
Q 2325 3200 2522 3125 
Q 2719 3050 2822 2900 
Q 3156 2891 3156 2528 
Q 3156 2306 3091 1934 
Q 3019 1503 3006 1347 
z
M 2003 2700 
Q 1409 2700 1084 2291 
Q 794 1922 794 1353 
Q 794 900 966 672 
Q 1138 444 1481 444 
Q 1797 444 2094 800 
Q 2363 1128 2400 1450 
Q 2466 1788 2541 2509 
Q 2416 2606 2281 2653 
Q 2147 2700 2003 2700 
z
" transform="scale(0.015625)"/>
     <path id="ComicSansMS-42" d="M 2769 125 
Q 2066 -150 972 -150 
Q 838 -150 717 -23 
Q 597 103 597 238 
L 597 1147 
Q 597 1594 653 2422 
Q 716 3316 722 3716 
Q 719 4003 756 4572 
Q 778 4728 859 4778 
Q 1284 4909 1825 4909 
Q 2375 4909 2881 4534 
Q 3466 4103 3466 3469 
Q 3466 2666 2841 2203 
Q 3309 2003 3542 1759 
Q 3775 1516 3775 1228 
Q 3775 850 3366 497 
Q 3081 247 2769 125 
z
M 1825 4272 
Q 1484 4272 1347 4250 
L 1341 3703 
L 1278 2494 
Q 1722 2456 1753 2459 
Q 2225 2497 2525 2753 
Q 2847 3031 2847 3469 
Q 2847 3766 2519 4019 
Q 2191 4272 1825 4272 
z
M 2175 1769 
L 1844 1822 
Q 1803 1822 1720 1817 
Q 1638 1813 1594 1813 
Q 1425 1813 1234 1841 
Q 1216 1447 1216 1138 
L 1216 491 
Q 2034 519 2550 722 
Q 2769 806 2969 984 
Q 3159 1147 3159 1228 
Q 3159 1375 2759 1559 
Q 2459 1700 2175 1769 
z
" transform="scale(0.015625)"/>
     <path id="ComicSansMS-43" d="M 3450 3506 
Q 3250 3506 3150 3741 
Q 3063 3941 2988 3984 
Q 2922 4019 2663 4019 
Q 2209 4019 1656 3325 
Q 906 2394 906 1559 
Q 906 1156 1166 866 
Q 1431 566 1806 566 
Q 2128 566 2453 731 
Q 2634 825 3009 1100 
Q 3188 1231 3278 1231 
Q 3413 1231 3503 1129 
Q 3594 1028 3594 903 
Q 3594 763 3475 656 
Q 2650 -75 1806 -75 
Q 1159 -75 713 422 
Q 281 903 281 1559 
Q 281 2619 1169 3731 
Q 1909 4659 2663 4659 
Q 2816 4659 2937 4645 
Q 3059 4631 3153 4600 
Q 3263 4759 3438 4759 
Q 3653 4759 3709 4475 
Q 3759 4222 3759 3853 
Q 3759 3725 3691 3628 
Q 3606 3506 3450 3506 
z
" transform="scale(0.015625)"/>
    </defs>
    <use xlink:href="#ComicSansMS-41"/>
    <use xlink:href="#ComicSansMS-6c" transform="translate(73.144531 0)"/>
    <use xlink:href="#ComicSansMS-6c" transform="translate(100.537109 0)"/>
    <use xlink:href="#ComicSansMS-20" transform="translate(127.929688 0)"/>
    <use xlink:href="#ComicSansMS-61" transform="translate(157.8125 0)"/>
    <use xlink:href="#ComicSansMS-76" transform="translate(208.984375 0)"/>
    <use xlink:href="#ComicSansMS-61" transform="translate(257.617188 0)"/>
    <use xlink:href="#ComicSansMS-69" transform="translate(308.789062 0)"/>
    <use xlink:href="#ComicSansMS-6c" transform="translate(336.816406 0)"/>
    <use xlink:href="#ComicSansMS-61" transform="translate(364.208984 0)"/>
    <use xlink:href="#ComicSansMS-62" transform="translate(415.380859 0)"/>
    <use xlink:href="#ComicSansMS-6c" transform="translate(474.707031 0)"/>
    <use xlink:href="#ComicSansMS-65" transform="translate(502.099609 0)"/>
    <use xlink:href="#ComicSansMS-20" transform="translate(556.884766 0)"/>
    <use xlink:href="#ComicSansMS-64" transform="translate(586.767578 0)"/>
    <use xlink:href="#ComicSansMS-61" transform="translate(645.507812 0)"/>
    <use xlink:href="#ComicSansMS-74" transform="translate(696.679688 0)"/>
    <use xlink:href="#ComicSansMS-61" transform="translate(743.798828 0)"/>
    <use xlink:href="#ComicSansMS-20" transform="translate(794.970703 0)"/>
    <use xlink:href="#ComicSansMS-44" transform="translate(824.853516 0)"/>
    <use xlink:href="#ComicSansMS-2e" transform="translate(897.021484 0)"/>
    <use xlink:href="#ComicSansMS-20" transform="translate(921.923828 0)"/>
    <use xlink:href="#ComicSansMS-54" transform="translate(951.806641 0)"/>
    <use xlink:href="#ComicSansMS-68" transform="translate(1019.775391 0)"/>
    <use xlink:href="#ComicSansMS-65" transform="translate(1077.539062 0)"/>
    <use xlink:href="#ComicSansMS-20" transform="translate(1132.324219 0)"/>
    <use xlink:href="#ComicSansMS-73" transform="translate(1162.207031 0)"/>
    <use xlink:href="#ComicSansMS-74" transform="translate(1210.888672 0)"/>
    <use xlink:href="#ComicSansMS-61" transform="translate(1258.007812 0)"/>
    <use xlink:href="#ComicSansMS-74" transform="translate(1309.179688 0)"/>
    <use xlink:href="#ComicSansMS-69" transform="translate(1356.298828 0)"/>
    <use xlink:href="#ComicSansMS-73" transform="translate(1384.326172 0)"/>
    <use xlink:href="#ComicSansMS-74" transform="translate(1433.007812 0)"/>
    <use xlink:href="#ComicSansMS-69" transform="translate(1480.126953 0)"/>
    <use xlink:href="#ComicSansMS-63" transform="translate(1508.154297 0)"/>
    <use xlink:href="#ComicSansMS-61" transform="translate(1559.521484 0)"/>
    <use xlink:href="#ComicSansMS-6c" transform="translate(1610.693359 0)"/>
    <use xlink:href="#ComicSansMS-20" transform="translate(1638.085938 0)"/>
    <use xlink:href="#ComicSansMS-70" transform="translate(1667.96875 0)"/>
    <use xlink:href="#ComicSansMS-6f" transform="translate(1721.435547 0)"/>
    <use xlink:href="#ComicSansMS-70" transform="translate(1774.023438 0)"/>
    <use xlink:href="#ComicSansMS-75" transform="translate(1827.490234 0)"/>
    <use xlink:href="#ComicSansMS-6c" transform="translate(1879.492188 0)"/>
    <use xlink:href="#ComicSansMS-61" transform="translate(1906.884766 0)"/>
    <use xlink:href="#ComicSansMS-74" transform="translate(1958.056641 0)"/>
    <use xlink:href="#ComicSansMS-69" transform="translate(2005.175781 0)"/>
    <use xlink:href="#ComicSansMS-6f" transform="translate(2033.203125 0)"/>
    <use xlink:href="#ComicSansMS-6e" transform="translate(2085.791016 0)"/>
    <use xlink:href="#ComicSansMS-20" transform="translate(2138.134766 0)"/>
    <use xlink:href="#ComicSansMS-69" transform="translate(2168.017578 0)"/>
    <use xlink:href="#ComicSansMS-6e" transform="translate(2196.044922 0)"/>
    <use xlink:href="#ComicSansMS-63" transform="translate(2248.388672 0)"/>
    <use xlink:href="#ComicSansMS-6c" transform="translate(2299.755859 0)"/>
    <use xlink:href="#ComicSansMS-75" transform="translate(2327.148438 0)"/>
    <use xlink:href="#ComicSansMS-64" transform="translate(2379.150391 0)"/>
    <use xlink:href="#ComicSansMS-69" transform="translate(2437.890625 0)"/>
    <use xlink:href="#ComicSansMS-6e" transform="translate(2465.917969 0)"/>
    <use xlink:href="#ComicSansMS-67" transform="translate(2518.261719 0)"/>
    <use xlink:href="#ComicSansMS-20" transform="translate(2571.337891 0)"/>
    <use xlink:href="#ComicSansMS-64" transform="translate(2601.220703 0)"/>
    <use xlink:href="#ComicSansMS-61" transform="translate(2659.960938 0)"/>
    <use xlink:href="#ComicSansMS-74" transform="translate(2711.132812 0)"/>
    <use xlink:href="#ComicSansMS-61" transform="translate(2758.251953 0)"/>
    <use xlink:href="#ComicSansMS-73" transform="translate(2809.423828 0)"/>
    <use xlink:href="#ComicSansMS-65" transform="translate(2858.105469 0)"/>
    <use xlink:href="#ComicSansMS-74" transform="translate(2912.890625 0)"/>
    <use xlink:href="#ComicSansMS-73" transform="translate(2960.009766 0)"/>
    <use xlink:href="#ComicSansMS-20" transform="translate(3008.691406 0)"/>
    <use xlink:href="#ComicSansMS-41" transform="translate(3038.574219 0)"/>
    <use xlink:href="#ComicSansMS-2c" transform="translate(3111.71875 0)"/>
    <use xlink:href="#ComicSansMS-20" transform="translate(3139.404297 0)"/>
    <use xlink:href="#ComicSansMS-42" transform="translate(3169.287109 0)"/>
    <use xlink:href="#ComicSansMS-2c" transform="translate(3232.324219 0)"/>
    <use xlink:href="#ComicSansMS-20" transform="translate(3260.009766 0)"/>
    <use xlink:href="#ComicSansMS-61" transform="translate(3289.892578 0)"/>
    <use xlink:href="#ComicSansMS-6e" transform="translate(3341.064453 0)"/>
    <use xlink:href="#ComicSansMS-64" transform="translate(3393.408203 0)"/>
    <use xlink:href="#ComicSansMS-20" transform="translate(3452.148438 0)"/>
    <use xlink:href="#ComicSansMS-43" transform="translate(3482.03125 0)"/>
   </g>
  </g>
 </g>
 <defs>
  <clipPath id="p204574bdc8">
   <rect x="90" y="51.84" width="558" height="332.64"/>
  </clipPath>
 </defs>
</svg>
