<?xml version="1.0" encoding="utf-8" standalone="no"?>
<!DOCTYPE svg PUBLIC "-//W3C//DTD SVG 1.1//EN"
  "http://www.w3.org/Graphics/SVG/1.1/DTD/svg11.dtd">
<svg xmlns:xlink="http://www.w3.org/1999/xlink" width="975.18125pt" height="440.310625pt" viewBox="0 0 975.18125 440.310625" xmlns="http://www.w3.org/2000/svg" version="1.1">
 <metadata>
  <rdf:RDF xmlns:dc="http://purl.org/dc/elements/1.1/" xmlns:cc="http://creativecommons.org/ns#" xmlns:rdf="http://www.w3.org/1999/02/22-rdf-syntax-ns#">
   <cc:Work>
    <dc:type rdf:resource="http://purl.org/dc/dcmitype/StillImage"/>
    <dc:date>2026-03-02T19:21:03.271381</dc:date>
    <dc:format>image/svg+xml</dc:format>
    <dc:creator>
     <cc:Agent>
      <dc:title>Matplotlib v3.10.7, https://matplotlib.org/</dc:title>
     </cc:Agent>
    </dc:creator>
   </cc:Work>
  </rdf:RDF>
 </metadata>
 <defs>
  <style type="text/css">*{stroke-linejoin: round; stroke-linecap: butt}</style>
 </defs>
 <g id="figure_1">
  <g id="patch_1">
   <path d="M 0 440.310625 
L 975.18125 440.310625 
L 975.18125 0 
L 0 0 
z
" style="fill: #ffffff"/>
  </g>
  <g id="axes_1">
   <g id="patch_2">
    <path d="M 10.38125 399.6 
L 276.38125 399.6 
L 276.38125 122.4 
L 10.38125 122.4 
z
" style="fill: #ffffff"/>
   </g>
   <g id="PathCollection_1">
    <defs>
     <path id="m46e464585f" d="M 0 3.162278 
C 0.838646 3.162278 1.643056 2.82908 2.236068 2.236068 
C 2.82908 1.643056 3.162278 0.838646 3.162278 0 
C 3.162278 -0.838646 2.82908 -1.643056 2.236068 -2.236068 
C 1.643056 -2.82908 0.838646 -3.162278 0 -3.162278 
C -0.838646 -3.162278 -1.643056 -2.82908 -2.236068 -2.236068 
C -2.82908 -1.643056 -3.162278 -0.838646 -3.162278 0 
C -3.162278 0.838646 -2.82908 1.643056 -2.236068 2.236068 
C -1.643056 2.82908 -0.838646 3.162278 0 3.162278 
z
" style="stroke: #808080; stroke-opacity: 0.8"/>
    </defs>
    <g clip-path="url(#p6fcd30ab1d)">
     <use xlink:href="#m46e464585f" x="95.238451" y="387" style="fill: #808080; fill-opacity: 0.8; stroke: #808080; stroke-opacity: 0.8"/>
     <use xlink:href="#m46e464585f" x="105.746626" y="384.454545" style="fill: #808080; fill-opacity: 0.8; stroke: #808080; stroke-opacity: 0.8"/>
     <use xlink:href="#m46e464585f" x="111.830616" y="381.909091" style="fill: #808080; fill-opacity: 0.8; stroke: #808080; stroke-opacity: 0.8"/>
     <use xlink:href="#m46e464585f" x="102.523941" y="379.363636" style="fill: #808080; fill-opacity: 0.8; stroke: #808080; stroke-opacity: 0.8"/>
     <use xlink:href="#m46e464585f" x="97.758879" y="376.818182" style="fill: #808080; fill-opacity: 0.8; stroke: #808080; stroke-opacity: 0.8"/>
     <use xlink:href="#m46e464585f" x="112.385782" y="374.272727" style="fill: #808080; fill-opacity: 0.8; stroke: #808080; stroke-opacity: 0.8"/>
     <use xlink:href="#m46e464585f" x="106.70934" y="371.727273" style="fill: #808080; fill-opacity: 0.8; stroke: #808080; stroke-opacity: 0.8"/>
     <use xlink:href="#m46e464585f" x="111.980969" y="369.181818" style="fill: #808080; fill-opacity: 0.8; stroke: #808080; stroke-opacity: 0.8"/>
     <use xlink:href="#m46e464585f" x="114.713068" y="366.636364" style="fill: #808080; fill-opacity: 0.8; stroke: #808080; stroke-opacity: 0.8"/>
     <use xlink:href="#m46e464585f" x="32.558686" y="364.090909" style="fill: #808080; fill-opacity: 0.8; stroke: #808080; stroke-opacity: 0.8"/>
     <use xlink:href="#m46e464585f" x="112.585782" y="361.545455" style="fill: #808080; fill-opacity: 0.8; stroke: #808080; stroke-opacity: 0.8"/>
     <use xlink:href="#m46e464585f" x="117.128738" y="359" style="fill: #808080; fill-opacity: 0.8; stroke: #808080; stroke-opacity: 0.8"/>
     <use xlink:href="#m46e464585f" x="190.573517" y="356.454545" style="fill: #808080; fill-opacity: 0.8; stroke: #808080; stroke-opacity: 0.8"/>
     <use xlink:href="#m46e464585f" x="118.605813" y="353.909091" style="fill: #808080; fill-opacity: 0.8; stroke: #808080; stroke-opacity: 0.8"/>
     <use xlink:href="#m46e464585f" x="109.816777" y="351.363636" style="fill: #808080; fill-opacity: 0.8; stroke: #808080; stroke-opacity: 0.8"/>
     <use xlink:href="#m46e464585f" x="116.085627" y="348.818182" style="fill: #808080; fill-opacity: 0.8; stroke: #808080; stroke-opacity: 0.8"/>
     <use xlink:href="#m46e464585f" x="115.730148" y="346.272727" style="fill: #808080; fill-opacity: 0.8; stroke: #808080; stroke-opacity: 0.8"/>
     <use xlink:href="#m46e464585f" x="132.099221" y="343.727273" style="fill: #808080; fill-opacity: 0.8; stroke: #808080; stroke-opacity: 0.8"/>
     <use xlink:href="#m46e464585f" x="117.518055" y="341.181818" style="fill: #808080; fill-opacity: 0.8; stroke: #808080; stroke-opacity: 0.8"/>
     <use xlink:href="#m46e464585f" x="126.631175" y="338.636364" style="fill: #808080; fill-opacity: 0.8; stroke: #808080; stroke-opacity: 0.8"/>
     <use xlink:href="#m46e464585f" x="114.890491" y="336.090909" style="fill: #808080; fill-opacity: 0.8; stroke: #808080; stroke-opacity: 0.8"/>
     <use xlink:href="#m46e464585f" x="121.255416" y="333.545455" style="fill: #808080; fill-opacity: 0.8; stroke: #808080; stroke-opacity: 0.8"/>
     <use xlink:href="#m46e464585f" x="45.062123" y="331" style="fill: #808080; fill-opacity: 0.8; stroke: #808080; stroke-opacity: 0.8"/>
     <use xlink:href="#m46e464585f" x="125.530964" y="328.454545" style="fill: #808080; fill-opacity: 0.8; stroke: #808080; stroke-opacity: 0.8"/>
     <use xlink:href="#m46e464585f" x="133.3498" y="325.909091" style="fill: #808080; fill-opacity: 0.8; stroke: #808080; stroke-opacity: 0.8"/>
     <use xlink:href="#m46e464585f" x="122.6109" y="323.363636" style="fill: #808080; fill-opacity: 0.8; stroke: #808080; stroke-opacity: 0.8"/>
     <use xlink:href="#m46e464585f" x="130.690793" y="320.818182" style="fill: #808080; fill-opacity: 0.8; stroke: #808080; stroke-opacity: 0.8"/>
     <use xlink:href="#m46e464585f" x="131.492648" y="318.272727" style="fill: #808080; fill-opacity: 0.8; stroke: #808080; stroke-opacity: 0.8"/>
     <use xlink:href="#m46e464585f" x="131.783867" y="315.727273" style="fill: #808080; fill-opacity: 0.8; stroke: #808080; stroke-opacity: 0.8"/>
     <use xlink:href="#m46e464585f" x="128.932712" y="313.181818" style="fill: #808080; fill-opacity: 0.8; stroke: #808080; stroke-opacity: 0.8"/>
     <use xlink:href="#m46e464585f" x="130.104823" y="310.636364" style="fill: #808080; fill-opacity: 0.8; stroke: #808080; stroke-opacity: 0.8"/>
     <use xlink:href="#m46e464585f" x="132.219518" y="308.090909" style="fill: #808080; fill-opacity: 0.8; stroke: #808080; stroke-opacity: 0.8"/>
     <use xlink:href="#m46e464585f" x="133.392394" y="305.545455" style="fill: #808080; fill-opacity: 0.8; stroke: #808080; stroke-opacity: 0.8"/>
     <use xlink:href="#m46e464585f" x="134.042411" y="303" style="fill: #808080; fill-opacity: 0.8; stroke: #808080; stroke-opacity: 0.8"/>
     <use xlink:href="#m46e464585f" x="137.579398" y="300.454545" style="fill: #808080; fill-opacity: 0.8; stroke: #808080; stroke-opacity: 0.8"/>
     <use xlink:href="#m46e464585f" x="134.561589" y="297.909091" style="fill: #808080; fill-opacity: 0.8; stroke: #808080; stroke-opacity: 0.8"/>
     <use xlink:href="#m46e464585f" x="138.31619" y="295.363636" style="fill: #808080; fill-opacity: 0.8; stroke: #808080; stroke-opacity: 0.8"/>
     <use xlink:href="#m46e464585f" x="138.143218" y="292.818182" style="fill: #808080; fill-opacity: 0.8; stroke: #808080; stroke-opacity: 0.8"/>
     <use xlink:href="#m46e464585f" x="132.891502" y="290.272727" style="fill: #808080; fill-opacity: 0.8; stroke: #808080; stroke-opacity: 0.8"/>
     <use xlink:href="#m46e464585f" x="134.64219" y="287.727273" style="fill: #808080; fill-opacity: 0.8; stroke: #808080; stroke-opacity: 0.8"/>
     <use xlink:href="#m46e464585f" x="141.871778" y="285.181818" style="fill: #808080; fill-opacity: 0.8; stroke: #808080; stroke-opacity: 0.8"/>
     <use xlink:href="#m46e464585f" x="142.382665" y="282.636364" style="fill: #808080; fill-opacity: 0.8; stroke: #808080; stroke-opacity: 0.8"/>
     <use xlink:href="#m46e464585f" x="145.814951" y="280.090909" style="fill: #808080; fill-opacity: 0.8; stroke: #808080; stroke-opacity: 0.8"/>
     <use xlink:href="#m46e464585f" x="132.449064" y="277.545455" style="fill: #808080; fill-opacity: 0.8; stroke: #808080; stroke-opacity: 0.8"/>
     <use xlink:href="#m46e464585f" x="145.537629" y="275" style="fill: #808080; fill-opacity: 0.8; stroke: #808080; stroke-opacity: 0.8"/>
     <use xlink:href="#m46e464585f" x="133.420954" y="272.454545" style="fill: #808080; fill-opacity: 0.8; stroke: #808080; stroke-opacity: 0.8"/>
     <use xlink:href="#m46e464585f" x="144.396927" y="269.909091" style="fill: #808080; fill-opacity: 0.8; stroke: #808080; stroke-opacity: 0.8"/>
     <use xlink:href="#m46e464585f" x="134.862065" y="267.363636" style="fill: #808080; fill-opacity: 0.8; stroke: #808080; stroke-opacity: 0.8"/>
     <use xlink:href="#m46e464585f" x="152.156039" y="264.818182" style="fill: #808080; fill-opacity: 0.8; stroke: #808080; stroke-opacity: 0.8"/>
     <use xlink:href="#m46e464585f" x="133.111492" y="262.272727" style="fill: #808080; fill-opacity: 0.8; stroke: #808080; stroke-opacity: 0.8"/>
     <use xlink:href="#m46e464585f" x="157.434571" y="259.727273" style="fill: #808080; fill-opacity: 0.8; stroke: #808080; stroke-opacity: 0.8"/>
     <use xlink:href="#m46e464585f" x="149.8735" y="257.181818" style="fill: #808080; fill-opacity: 0.8; stroke: #808080; stroke-opacity: 0.8"/>
     <use xlink:href="#m46e464585f" x="153.456359" y="254.636364" style="fill: #808080; fill-opacity: 0.8; stroke: #808080; stroke-opacity: 0.8"/>
     <use xlink:href="#m46e464585f" x="153.165649" y="252.090909" style="fill: #808080; fill-opacity: 0.8; stroke: #808080; stroke-opacity: 0.8"/>
     <use xlink:href="#m46e464585f" x="159.284087" y="249.545455" style="fill: #808080; fill-opacity: 0.8; stroke: #808080; stroke-opacity: 0.8"/>
     <use xlink:href="#m46e464585f" x="152.311439" y="247" style="fill: #808080; fill-opacity: 0.8; stroke: #808080; stroke-opacity: 0.8"/>
     <use xlink:href="#m46e464585f" x="148.407004" y="244.454545" style="fill: #808080; fill-opacity: 0.8; stroke: #808080; stroke-opacity: 0.8"/>
     <use xlink:href="#m46e464585f" x="179.068446" y="241.909091" style="fill: #808080; fill-opacity: 0.8; stroke: #808080; stroke-opacity: 0.8"/>
     <use xlink:href="#m46e464585f" x="151.10382" y="239.363636" style="fill: #808080; fill-opacity: 0.8; stroke: #808080; stroke-opacity: 0.8"/>
     <use xlink:href="#m46e464585f" x="156.131411" y="236.818182" style="fill: #808080; fill-opacity: 0.8; stroke: #808080; stroke-opacity: 0.8"/>
     <use xlink:href="#m46e464585f" x="158.276593" y="234.272727" style="fill: #808080; fill-opacity: 0.8; stroke: #808080; stroke-opacity: 0.8"/>
     <use xlink:href="#m46e464585f" x="156.525886" y="231.727273" style="fill: #808080; fill-opacity: 0.8; stroke: #808080; stroke-opacity: 0.8"/>
     <use xlink:href="#m46e464585f" x="159.171727" y="229.181818" style="fill: #808080; fill-opacity: 0.8; stroke: #808080; stroke-opacity: 0.8"/>
     <use xlink:href="#m46e464585f" x="166.035192" y="226.636364" style="fill: #808080; fill-opacity: 0.8; stroke: #808080; stroke-opacity: 0.8"/>
     <use xlink:href="#m46e464585f" x="242.731397" y="224.090909" style="fill: #808080; fill-opacity: 0.8; stroke: #808080; stroke-opacity: 0.8"/>
     <use xlink:href="#m46e464585f" x="158.740168" y="221.545455" style="fill: #808080; fill-opacity: 0.8; stroke: #808080; stroke-opacity: 0.8"/>
     <use xlink:href="#m46e464585f" x="166.375631" y="219" style="fill: #808080; fill-opacity: 0.8; stroke: #808080; stroke-opacity: 0.8"/>
     <use xlink:href="#m46e464585f" x="158.265635" y="216.454545" style="fill: #808080; fill-opacity: 0.8; stroke: #808080; stroke-opacity: 0.8"/>
     <use xlink:href="#m46e464585f" x="168.158444" y="213.909091" style="fill: #808080; fill-opacity: 0.8; stroke: #808080; stroke-opacity: 0.8"/>
     <use xlink:href="#m46e464585f" x="162.750312" y="211.363636" style="fill: #808080; fill-opacity: 0.8; stroke: #808080; stroke-opacity: 0.8"/>
     <use xlink:href="#m46e464585f" x="162.930036" y="208.818182" style="fill: #808080; fill-opacity: 0.8; stroke: #808080; stroke-opacity: 0.8"/>
     <use xlink:href="#m46e464585f" x="165.475863" y="206.272727" style="fill: #808080; fill-opacity: 0.8; stroke: #808080; stroke-opacity: 0.8"/>
     <use xlink:href="#m46e464585f" x="167.914349" y="203.727273" style="fill: #808080; fill-opacity: 0.8; stroke: #808080; stroke-opacity: 0.8"/>
     <use xlink:href="#m46e464585f" x="166.575513" y="201.181818" style="fill: #808080; fill-opacity: 0.8; stroke: #808080; stroke-opacity: 0.8"/>
     <use xlink:href="#m46e464585f" x="175.427136" y="198.636364" style="fill: #808080; fill-opacity: 0.8; stroke: #808080; stroke-opacity: 0.8"/>
     <use xlink:href="#m46e464585f" x="168.226991" y="196.090909" style="fill: #808080; fill-opacity: 0.8; stroke: #808080; stroke-opacity: 0.8"/>
     <use xlink:href="#m46e464585f" x="175.774649" y="193.545455" style="fill: #808080; fill-opacity: 0.8; stroke: #808080; stroke-opacity: 0.8"/>
     <use xlink:href="#m46e464585f" x="176.22493" y="191" style="fill: #808080; fill-opacity: 0.8; stroke: #808080; stroke-opacity: 0.8"/>
     <use xlink:href="#m46e464585f" x="171.509835" y="188.454545" style="fill: #808080; fill-opacity: 0.8; stroke: #808080; stroke-opacity: 0.8"/>
     <use xlink:href="#m46e464585f" x="260.95843" y="185.909091" style="fill: #808080; fill-opacity: 0.8; stroke: #808080; stroke-opacity: 0.8"/>
     <use xlink:href="#m46e464585f" x="182.032202" y="183.363636" style="fill: #808080; fill-opacity: 0.8; stroke: #808080; stroke-opacity: 0.8"/>
     <use xlink:href="#m46e464585f" x="177.802343" y="180.818182" style="fill: #808080; fill-opacity: 0.8; stroke: #808080; stroke-opacity: 0.8"/>
     <use xlink:href="#m46e464585f" x="179.660273" y="178.272727" style="fill: #808080; fill-opacity: 0.8; stroke: #808080; stroke-opacity: 0.8"/>
     <use xlink:href="#m46e464585f" x="169.271529" y="175.727273" style="fill: #808080; fill-opacity: 0.8; stroke: #808080; stroke-opacity: 0.8"/>
     <use xlink:href="#m46e464585f" x="30.946902" y="173.181818" style="fill: #808080; fill-opacity: 0.8; stroke: #808080; stroke-opacity: 0.8"/>
     <use xlink:href="#m46e464585f" x="183.297526" y="170.636364" style="fill: #808080; fill-opacity: 0.8; stroke: #808080; stroke-opacity: 0.8"/>
     <use xlink:href="#m46e464585f" x="187.293613" y="168.090909" style="fill: #808080; fill-opacity: 0.8; stroke: #808080; stroke-opacity: 0.8"/>
     <use xlink:href="#m46e464585f" x="178.372103" y="165.545455" style="fill: #808080; fill-opacity: 0.8; stroke: #808080; stroke-opacity: 0.8"/>
     <use xlink:href="#m46e464585f" x="182.08188" y="163" style="fill: #808080; fill-opacity: 0.8; stroke: #808080; stroke-opacity: 0.8"/>
     <use xlink:href="#m46e464585f" x="187.200126" y="160.454545" style="fill: #808080; fill-opacity: 0.8; stroke: #808080; stroke-opacity: 0.8"/>
     <use xlink:href="#m46e464585f" x="179.93592" y="157.909091" style="fill: #808080; fill-opacity: 0.8; stroke: #808080; stroke-opacity: 0.8"/>
     <use xlink:href="#m46e464585f" x="186.501868" y="155.363636" style="fill: #808080; fill-opacity: 0.8; stroke: #808080; stroke-opacity: 0.8"/>
     <use xlink:href="#m46e464585f" x="172.076054" y="152.818182" style="fill: #808080; fill-opacity: 0.8; stroke: #808080; stroke-opacity: 0.8"/>
     <use xlink:href="#m46e464585f" x="188.073078" y="150.272727" style="fill: #808080; fill-opacity: 0.8; stroke: #808080; stroke-opacity: 0.8"/>
     <use xlink:href="#m46e464585f" x="179.336499" y="147.727273" style="fill: #808080; fill-opacity: 0.8; stroke: #808080; stroke-opacity: 0.8"/>
     <use xlink:href="#m46e464585f" x="23.849536" y="145.181818" style="fill: #808080; fill-opacity: 0.8; stroke: #808080; stroke-opacity: 0.8"/>
     <use xlink:href="#m46e464585f" x="186.63421" y="142.636364" style="fill: #808080; fill-opacity: 0.8; stroke: #808080; stroke-opacity: 0.8"/>
     <use xlink:href="#m46e464585f" x="186.718716" y="140.090909" style="fill: #808080; fill-opacity: 0.8; stroke: #808080; stroke-opacity: 0.8"/>
     <use xlink:href="#m46e464585f" x="189.70564" y="137.545455" style="fill: #808080; fill-opacity: 0.8; stroke: #808080; stroke-opacity: 0.8"/>
     <use xlink:href="#m46e464585f" x="179.732847" y="135" style="fill: #808080; fill-opacity: 0.8; stroke: #808080; stroke-opacity: 0.8"/>
    </g>
   </g>
   <g id="matplotlib.axis_1">
    <g id="xtick_1">
     <g id="line2d_1">
      <defs>
       <path id="mf6de406d0d" d="M 0 0 
L 0 3.5 
" style="stroke: #000000; stroke-width: 0.8"/>
      </defs>
      <g>
       <use xlink:href="#mf6de406d0d" x="10.38125" y="399.6" style="stroke: #000000; stroke-width: 0.8"/>
      </g>
     </g>
     <g id="text_1">
      <!-- 0 -->
      <g transform="translate(7.2 414.198437) scale(0.1 -0.1)">
       <defs>
        <path id="DejaVuSans-30" d="M 2034 4250 
Q 1547 4250 1301 3770 
Q 1056 3291 1056 2328 
Q 1056 1369 1301 889 
Q 1547 409 2034 409 
Q 2525 409 2770 889 
Q 3016 1369 3016 2328 
Q 3016 3291 2770 3770 
Q 2525 4250 2034 4250 
z
M 2034 4750 
Q 2819 4750 3233 4129 
Q 3647 3509 3647 2328 
Q 3647 1150 3233 529 
Q 2819 -91 2034 -91 
Q 1250 -91 836 529 
Q 422 1150 422 2328 
Q 422 3509 836 4129 
Q 1250 4750 2034 4750 
z
" transform="scale(0.015625)"/>
       </defs>
       <use xlink:href="#DejaVuSans-30"/>
      </g>
     </g>
    </g>
    <g id="xtick_2">
     <g id="line2d_2">
      <g>
       <use xlink:href="#mf6de406d0d" x="53.284476" y="399.6" style="stroke: #000000; stroke-width: 0.8"/>
      </g>
     </g>
     <g id="text_2">
      <!-- 10 -->
      <g transform="translate(46.921976 414.198437) scale(0.1 -0.1)">
       <defs>
        <path id="DejaVuSans-31" d="M 794 531 
L 1825 531 
L 1825 4091 
L 703 3866 
L 703 4441 
L 1819 4666 
L 2450 4666 
L 2450 531 
L 3481 531 
L 3481 0 
L 794 0 
L 794 531 
z
" transform="scale(0.015625)"/>
       </defs>
       <use xlink:href="#DejaVuSans-31"/>
       <use xlink:href="#DejaVuSans-30" transform="translate(63.623047 0)"/>
      </g>
     </g>
    </g>
    <g id="xtick_3">
     <g id="line2d_3">
      <g>
       <use xlink:href="#mf6de406d0d" x="96.187702" y="399.6" style="stroke: #000000; stroke-width: 0.8"/>
      </g>
     </g>
     <g id="text_3">
      <!-- 20 -->
      <g transform="translate(89.825202 414.198437) scale(0.1 -0.1)">
       <defs>
        <path id="DejaVuSans-32" d="M 1228 531 
L 3431 531 
L 3431 0 
L 469 0 
L 469 531 
Q 828 903 1448 1529 
Q 2069 2156 2228 2338 
Q 2531 2678 2651 2914 
Q 2772 3150 2772 3378 
Q 2772 3750 2511 3984 
Q 2250 4219 1831 4219 
Q 1534 4219 1204 4116 
Q 875 4013 500 3803 
L 500 4441 
Q 881 4594 1212 4672 
Q 1544 4750 1819 4750 
Q 2544 4750 2975 4387 
Q 3406 4025 3406 3419 
Q 3406 3131 3298 2873 
Q 3191 2616 2906 2266 
Q 2828 2175 2409 1742 
Q 1991 1309 1228 531 
z
" transform="scale(0.015625)"/>
       </defs>
       <use xlink:href="#DejaVuSans-32"/>
       <use xlink:href="#DejaVuSans-30" transform="translate(63.623047 0)"/>
      </g>
     </g>
    </g>
    <g id="xtick_4">
     <g id="line2d_4">
      <g>
       <use xlink:href="#mf6de406d0d" x="139.090927" y="399.6" style="stroke: #000000; stroke-width: 0.8"/>
      </g>
     </g>
     <g id="text_4">
      <!-- 30 -->
      <g transform="translate(132.728427 414.198437) scale(0.1 -0.1)">
       <defs>
        <path id="DejaVuSans-33" d="M 2597 2516 
Q 3050 2419 3304 2112 
Q 3559 1806 3559 1356 
Q 3559 666 3084 287 
Q 2609 -91 1734 -91 
Q 1441 -91 1130 -33 
Q 819 25 488 141 
L 488 750 
Q 750 597 1062 519 
Q 1375 441 1716 441 
Q 2309 441 2620 675 
Q 2931 909 2931 1356 
Q 2931 1769 2642 2001 
Q 2353 2234 1838 2234 
L 1294 2234 
L 1294 2753 
L 1863 2753 
Q 2328 2753 2575 2939 
Q 2822 3125 2822 3475 
Q 2822 3834 2567 4026 
Q 2313 4219 1838 4219 
Q 1578 4219 1281 4162 
Q 984 4106 628 3988 
L 628 4550 
Q 988 4650 1302 4700 
Q 1616 4750 1894 4750 
Q 2613 4750 3031 4423 
Q 3450 4097 3450 3541 
Q 3450 3153 3228 2886 
Q 3006 2619 2597 2516 
z
" transform="scale(0.015625)"/>
       </defs>
       <use xlink:href="#DejaVuSans-33"/>
       <use xlink:href="#DejaVuSans-30" transform="translate(63.623047 0)"/>
      </g>
     </g>
    </g>
    <g id="xtick_5">
     <g id="line2d_5">
      <g>
       <use xlink:href="#mf6de406d0d" x="181.994153" y="399.6" style="stroke: #000000; stroke-width: 0.8"/>
      </g>
     </g>
     <g id="text_5">
      <!-- 40 -->
      <g transform="translate(175.631653 414.198437) scale(0.1 -0.1)">
       <defs>
        <path id="DejaVuSans-34" d="M 2419 4116 
L 825 1625 
L 2419 1625 
L 2419 4116 
z
M 2253 4666 
L 3047 4666 
L 3047 1625 
L 3713 1625 
L 3713 1100 
L 3047 1100 
L 3047 0 
L 2419 0 
L 2419 1100 
L 313 1100 
L 313 1709 
L 2253 4666 
z
" transform="scale(0.015625)"/>
       </defs>
       <use xlink:href="#DejaVuSans-34"/>
       <use xlink:href="#DejaVuSans-30" transform="translate(63.623047 0)"/>
      </g>
     </g>
    </g>
    <g id="xtick_6">
     <g id="line2d_6">
      <g>
       <use xlink:href="#mf6de406d0d" x="224.897379" y="399.6" style="stroke: #000000; stroke-width: 0.8"/>
      </g>
     </g>
     <g id="text_6">
      <!-- 50 -->
      <g transform="translate(218.534879 414.198437) scale(0.1 -0.1)">
       <defs>
        <path id="DejaVuSans-35" d="M 691 4666 
L 3169 4666 
L 3169 4134 
L 1269 4134 
L 1269 2991 
Q 1406 3038 1543 3061 
Q 1681 3084 1819 3084 
Q 2600 3084 3056 2656 
Q 3513 2228 3513 1497 
Q 3513 744 3044 326 
Q 2575 -91 1722 -91 
Q 1428 -91 1123 -41 
Q 819 9 494 109 
L 494 744 
Q 775 591 1075 516 
Q 1375 441 1709 441 
Q 2250 441 2565 725 
Q 2881 1009 2881 1497 
Q 2881 1984 2565 2268 
Q 2250 2553 1709 2553 
Q 1456 2553 1204 2497 
Q 953 2441 691 2322 
L 691 4666 
z
" transform="scale(0.015625)"/>
       </defs>
       <use xlink:href="#DejaVuSans-35"/>
       <use xlink:href="#DejaVuSans-30" transform="translate(63.623047 0)"/>
      </g>
     </g>
    </g>
    <g id="xtick_7">
     <g id="line2d_7">
      <g>
       <use xlink:href="#mf6de406d0d" x="267.800605" y="399.6" style="stroke: #000000; stroke-width: 0.8"/>
      </g>
     </g>
     <g id="text_7">
      <!-- 60 -->
      <g transform="translate(261.438105 414.198437) scale(0.1 -0.1)">
       <defs>
        <path id="DejaVuSans-36" d="M 2113 2584 
Q 1688 2584 1439 2293 
Q 1191 2003 1191 1497 
Q 1191 994 1439 701 
Q 1688 409 2113 409 
Q 2538 409 2786 701 
Q 3034 994 3034 1497 
Q 3034 2003 2786 2293 
Q 2538 2584 2113 2584 
z
M 3366 4563 
L 3366 3988 
Q 3128 4100 2886 4159 
Q 2644 4219 2406 4219 
Q 1781 4219 1451 3797 
Q 1122 3375 1075 2522 
Q 1259 2794 1537 2939 
Q 1816 3084 2150 3084 
Q 2853 3084 3261 2657 
Q 3669 2231 3669 1497 
Q 3669 778 3244 343 
Q 2819 -91 2113 -91 
Q 1303 -91 875 529 
Q 447 1150 447 2328 
Q 447 3434 972 4092 
Q 1497 4750 2381 4750 
Q 2619 4750 2861 4703 
Q 3103 4656 3366 4563 
z
" transform="scale(0.015625)"/>
       </defs>
       <use xlink:href="#DejaVuSans-36"/>
       <use xlink:href="#DejaVuSans-30" transform="translate(63.623047 0)"/>
      </g>
     </g>
    </g>
    <g id="text_8">
     <!-- V -->
     <g transform="translate(139.482187 429.705625) scale(0.12 -0.12)">
      <defs>
       <path id="ComicSansMS-56" d="M 4081 4284 
Q 3888 3994 3766 3675 
L 3528 2991 
L 2688 719 
Q 2541 319 2344 -63 
Q 2244 -250 2063 -250 
Q 1822 -250 1725 -6 
Q 1347 944 884 2728 
L 638 3588 
Q 453 4238 453 4438 
Q 453 4578 553 4669 
Q 644 4753 772 4753 
Q 1009 4753 1078 4497 
L 1194 3953 
L 1494 2891 
Q 1794 1728 2078 888 
L 2097 938 
L 2934 3206 
L 3200 3972 
Q 3378 4434 3578 4672 
Q 3681 4797 3822 4797 
Q 3947 4797 4045 4701 
Q 4144 4606 4144 4472 
Q 4144 4378 4081 4284 
z
" transform="scale(0.015625)"/>
      </defs>
      <use xlink:href="#ComicSansMS-56"/>
     </g>
    </g>
   </g>
   <g id="matplotlib.axis_2"/>
   <g id="patch_3">
    <path d="M 10.38125 399.6 
L 10.38125 122.4 
" style="fill: none; stroke: #000000; stroke-width: 0.8; stroke-linejoin: miter; stroke-linecap: square"/>
   </g>
   <g id="patch_4">
    <path d="M 276.38125 399.6 
L 276.38125 122.4 
" style="fill: none; stroke: #000000; stroke-width: 0.8; stroke-linejoin: miter; stroke-linecap: square"/>
   </g>
   <g id="patch_5">
    <path d="M 10.38125 399.6 
L 276.38125 399.6 
" style="fill: none; stroke: #000000; stroke-width: 0.8; stroke-linejoin: miter; stroke-linecap: square"/>
   </g>
   <g id="patch_6">
    <path d="M 10.38125 122.4 
L 276.38125 122.4 
" style="fill: none; stroke: #000000; stroke-width: 0.8; stroke-linejoin: miter; stroke-linecap: square"/>
   </g>
   <g id="text_9">
    <!-- Original dataset -->
    <g transform="translate(90.418594 116.4) scale(0.14 -0.14)">
     <defs>
      <path id="ComicSansMS-4f" d="M 2506 -191 
Q 1625 -191 1013 338 
Q 363 900 363 1788 
Q 363 2869 1003 3753 
Q 1719 4734 2788 4734 
Q 3816 4734 4316 4272 
Q 4838 3791 4838 2753 
Q 4838 1672 4250 803 
Q 3575 -191 2506 -191 
z
M 2788 4094 
Q 2022 4094 1491 3331 
Q 1000 2631 1000 1788 
Q 1000 1184 1447 806 
Q 1875 450 2506 450 
Q 3266 450 3759 1216 
Q 4200 1900 4200 2753 
Q 4200 3500 3866 3803 
Q 3547 4094 2788 4094 
z
" transform="scale(0.015625)"/>
      <path id="ComicSansMS-72" d="M 2866 2309 
Q 2844 1919 2553 1919 
Q 2284 1919 2284 2228 
Q 2284 2288 2275 2447 
L 2266 2709 
Q 1772 2650 1475 2431 
Q 1197 2228 1013 1819 
L 1019 106 
Q 1019 -209 709 -209 
Q 434 -209 434 106 
L 434 2300 
Q 434 2403 442 2609 
Q 450 2816 450 2919 
Q 450 3234 725 3234 
Q 1031 3234 1034 2716 
Q 1634 3294 2366 3294 
Q 2619 3294 2744 3103 
Q 2869 2913 2869 2528 
Q 2869 2366 2866 2309 
z
" transform="scale(0.015625)"/>
      <path id="ComicSansMS-69" d="M 1031 3956 
Q 881 3956 772 4062 
Q 663 4169 663 4319 
Q 663 4469 772 4575 
Q 881 4681 1031 4681 
Q 1181 4681 1289 4575 
Q 1397 4469 1397 4319 
Q 1397 4169 1289 4062 
Q 1181 3956 1031 3956 
z
M 1172 1419 
Q 1172 1231 1183 857 
Q 1194 484 1194 297 
Q 1194 159 1109 71 
Q 1025 -16 888 -16 
Q 753 -16 667 71 
Q 581 159 581 297 
Q 581 484 570 857 
Q 559 1231 559 1419 
Q 559 1713 590 2152 
Q 622 2591 622 2884 
Q 622 3025 708 3112 
Q 794 3200 928 3200 
Q 1063 3200 1148 3112 
Q 1234 3025 1234 2884 
Q 1234 2591 1203 2152 
Q 1172 1713 1172 1419 
z
" transform="scale(0.015625)"/>
      <path id="ComicSansMS-67" d="M 3006 1347 
L 2934 297 
Q 2916 -328 2806 -725 
Q 2666 -1231 2356 -1472 
Q 1981 -1763 1272 -1763 
Q 856 -1763 575 -1706 
Q 181 -1628 181 -1381 
Q 181 -1103 453 -1103 
Q 566 -1103 828 -1158 
Q 1091 -1213 1409 -1206 
Q 2009 -1197 2238 -625 
Q 2388 -244 2397 547 
Q 2228 234 1995 78 
Q 1763 -78 1463 -78 
Q 897 -78 542 308 
Q 188 694 188 1309 
Q 188 2153 672 2669 
Q 1172 3200 2034 3200 
Q 2325 3200 2522 3125 
Q 2719 3050 2822 2900 
Q 3156 2891 3156 2528 
Q 3156 2306 3091 1934 
Q 3019 1503 3006 1347 
z
M 2003 2700 
Q 1409 2700 1084 2291 
Q 794 1922 794 1353 
Q 794 900 966 672 
Q 1138 444 1481 444 
Q 1797 444 2094 800 
Q 2363 1128 2400 1450 
Q 2466 1788 2541 2509 
Q 2416 2606 2281 2653 
Q 2147 2700 2003 2700 
z
" transform="scale(0.015625)"/>
      <path id="ComicSansMS-6e" d="M 2831 -222 
Q 2563 -222 2528 72 
L 2441 756 
Q 2397 1122 2397 1441 
Q 2397 1528 2408 1737 
Q 2419 1947 2419 2034 
Q 2419 2709 2169 2709 
Q 1819 2709 1500 2294 
Q 1213 1916 1050 1338 
Q 1044 1216 1022 1031 
Q 1003 875 1003 728 
Q 1003 634 1022 446 
Q 1041 259 1041 166 
Q 1041 25 955 -62 
Q 869 -150 734 -150 
Q 597 -150 512 -62 
Q 428 25 428 166 
Q 428 259 408 446 
Q 388 634 388 728 
Q 388 1050 433 1620 
Q 478 2191 478 2513 
Q 478 2613 467 2809 
Q 456 3006 456 3106 
Q 456 3241 545 3327 
Q 634 3413 766 3413 
Q 1053 3413 1081 3006 
L 1091 2641 
Q 1616 3341 2169 3341 
Q 2669 3341 2866 2900 
Q 3000 2606 3013 2031 
L 3013 1716 
L 3009 1425 
Q 3009 1166 3076 755 
Q 3144 344 3144 88 
Q 3144 -50 3055 -136 
Q 2966 -222 2831 -222 
z
" transform="scale(0.015625)"/>
      <path id="ComicSansMS-61" d="M 2875 -206 
Q 2816 -206 2659 -69 
Q 2519 59 2450 159 
Q 2150 -3 1922 -86 
Q 1694 -169 1541 -169 
Q 809 -169 475 244 
Q 159 631 159 1431 
Q 159 2188 679 2725 
Q 1200 3263 1922 3263 
Q 2194 3263 2531 3122 
Q 2956 2947 2956 2700 
Q 2956 2616 2894 2550 
Q 2863 2431 2845 2159 
Q 2828 1888 2825 1463 
Q 2822 1075 2878 850 
Q 2909 713 3075 300 
Q 3097 244 3147 134 
L 3166 81 
Q 3166 -44 3078 -125 
Q 2991 -206 2875 -206 
z
M 2225 1966 
Q 2225 2100 2242 2258 
Q 2259 2416 2294 2594 
Q 2178 2653 2095 2681 
Q 2013 2709 1963 2709 
Q 1478 2709 1126 2314 
Q 775 1919 775 1403 
Q 775 891 956 634 
Q 1138 378 1500 378 
Q 1800 378 2009 488 
Q 2122 547 2325 725 
Q 2225 1553 2225 1966 
z
" transform="scale(0.015625)"/>
      <path id="ComicSansMS-6c" d="M 1228 2456 
L 1181 903 
Q 1181 656 1156 178 
Q 1125 -134 850 -134 
Q 544 -134 544 184 
Q 544 563 578 1320 
Q 613 2078 613 2456 
Q 613 2950 628 3586 
Q 644 4222 644 4716 
Q 644 5028 950 5028 
Q 1259 5028 1259 4716 
Q 1259 4222 1243 3586 
Q 1228 2950 1228 2456 
z
" transform="scale(0.015625)"/>
      <path id="ComicSansMS-20" transform="scale(0.015625)"/>
      <path id="ComicSansMS-64" d="M 3313 2759 
Q 3275 2300 3275 1841 
Q 3275 800 3372 269 
Q 3378 225 3378 197 
Q 3378 72 3290 -9 
Q 3203 -91 3088 -91 
Q 2894 -91 2803 191 
Q 2578 25 2336 -59 
Q 2094 -144 1831 -144 
Q 1184 -144 759 288 
Q 322 728 322 1419 
Q 322 2253 764 2756 
Q 1206 3259 1913 3259 
Q 2275 3259 2472 3147 
L 2766 2931 
Q 2809 4247 2869 4703 
Q 2909 4981 3153 4981 
Q 3438 4981 3438 4678 
Q 3438 4244 3313 2759 
z
M 1925 2678 
Q 1400 2678 1137 2367 
Q 875 2056 875 1431 
Q 875 1028 1161 737 
Q 1447 447 1831 447 
Q 2094 447 2275 544 
Q 2381 600 2622 803 
Q 2669 844 2713 900 
L 2703 1441 
L 2706 1803 
L 2713 2172 
Q 2594 2425 2397 2551 
Q 2200 2678 1925 2678 
z
" transform="scale(0.015625)"/>
      <path id="ComicSansMS-74" d="M 2525 2663 
Q 2459 2663 2370 2669 
Q 2281 2675 2216 2675 
Q 2144 2675 1791 2628 
L 1850 781 
L 1853 644 
L 1856 484 
Q 1869 -200 1528 -200 
Q 1403 -200 1311 -119 
Q 1219 -38 1219 84 
Q 1219 203 1228 440 
Q 1238 678 1238 797 
L 1175 2622 
Q 947 2631 481 2675 
Q 203 2713 203 2984 
Q 203 3122 287 3212 
Q 372 3303 503 3303 
L 1159 3250 
Q 1159 3409 1145 3676 
Q 1131 3944 1131 4063 
Q 1131 4194 1222 4280 
Q 1313 4366 1444 4366 
Q 1725 4366 1772 3906 
Q 1781 3791 1781 3628 
L 1775 3447 
L 1772 3253 
Q 2159 3303 2216 3303 
Q 2541 3303 2641 3272 
Q 2831 3209 2831 2978 
Q 2831 2841 2745 2752 
Q 2659 2663 2525 2663 
z
" transform="scale(0.015625)"/>
      <path id="ComicSansMS-73" d="M 2544 2406 
Q 2372 2406 2303 2522 
Q 2256 2603 2222 2859 
Q 1988 2800 1500 2641 
Q 997 2441 994 2147 
Q 1088 2113 1178 2097 
Q 1897 1969 2247 1744 
Q 2756 1416 2756 794 
Q 2756 284 2316 25 
Q 1950 -188 1391 -188 
Q 981 -188 609 -50 
Q 128 125 128 438 
Q 128 563 226 656 
Q 325 750 450 750 
Q 547 750 700 600 
Q 775 528 1038 481 
Q 1247 444 1391 444 
Q 1653 444 1853 506 
Q 2144 597 2144 794 
Q 2144 1219 1550 1369 
L 1225 1441 
Q 809 1531 634 1653 
Q 381 1828 381 2181 
Q 381 2834 997 3113 
Q 1184 3197 1596 3314 
Q 2009 3431 2188 3513 
Q 2316 3569 2466 3569 
Q 2600 3569 2686 3481 
Q 2772 3394 2772 3253 
Q 2772 3163 2811 2988 
Q 2850 2813 2850 2722 
Q 2850 2581 2764 2493 
Q 2678 2406 2544 2406 
z
" transform="scale(0.015625)"/>
      <path id="ComicSansMS-65" d="M 1894 -144 
Q 1188 -144 750 209 
Q 272 600 272 1303 
Q 272 2116 666 2666 
Q 1094 3266 1809 3266 
Q 2328 3266 2656 3091 
Q 3059 2875 3059 2428 
Q 3059 2116 2706 1859 
Q 2550 1747 2044 1509 
L 850 944 
Q 1025 684 1286 553 
Q 1547 422 1894 422 
Q 2109 422 2400 503 
Q 2769 606 2875 773 
Q 2981 941 3103 941 
Q 3213 941 3298 858 
Q 3384 775 3384 666 
Q 3384 319 2825 69 
Q 2347 -144 1894 -144 
z
M 1809 2703 
Q 1428 2703 1175 2408 
Q 922 2113 797 1519 
L 1756 1975 
Q 2322 2250 2563 2453 
Q 2294 2703 1809 2703 
z
" transform="scale(0.015625)"/>
     </defs>
     <use xlink:href="#ComicSansMS-4f"/>
     <use xlink:href="#ComicSansMS-72" transform="translate(79.833984 0)"/>
     <use xlink:href="#ComicSansMS-69" transform="translate(127.880859 0)"/>
     <use xlink:href="#ComicSansMS-67" transform="translate(155.908203 0)"/>
     <use xlink:href="#ComicSansMS-69" transform="translate(208.984375 0)"/>
     <use xlink:href="#ComicSansMS-6e" transform="translate(237.011719 0)"/>
     <use xlink:href="#ComicSansMS-61" transform="translate(289.355469 0)"/>
     <use xlink:href="#ComicSansMS-6c" transform="translate(340.527344 0)"/>
     <use xlink:href="#ComicSansMS-20" transform="translate(367.919922 0)"/>
     <use xlink:href="#ComicSansMS-64" transform="translate(397.802734 0)"/>
     <use xlink:href="#ComicSansMS-61" transform="translate(456.542969 0)"/>
     <use xlink:href="#ComicSansMS-74" transform="translate(507.714844 0)"/>
     <use xlink:href="#ComicSansMS-61" transform="translate(554.833984 0)"/>
     <use xlink:href="#ComicSansMS-73" transform="translate(606.005859 0)"/>
     <use xlink:href="#ComicSansMS-65" transform="translate(654.6875 0)"/>
     <use xlink:href="#ComicSansMS-74" transform="translate(709.472656 0)"/>
    </g>
   </g>
  </g>
  <g id="axes_2">
   <g id="patch_7">
    <path d="M 356.18125 399.6 
L 622.18125 399.6 
L 622.18125 122.4 
L 356.18125 122.4 
z
" style="fill: #ffffff"/>
   </g>
   <g id="patch_8">
    <path d="M 369.48125 399.6 
L 391.244886 399.6 
L 391.244886 386.187097 
L 369.48125 386.187097 
z
" clip-path="url(#pd27d381c84)" style="fill: #808080; opacity: 0.5"/>
   </g>
   <g id="patch_9">
    <path d="M 393.663068 399.6 
L 415.426705 399.6 
L 415.426705 395.129032 
L 393.663068 395.129032 
z
" clip-path="url(#pd27d381c84)" style="fill: #808080; opacity: 0.5"/>
   </g>
   <g id="patch_10">
    <path d="M 417.844886 399.6 
L 439.608523 399.6 
L 439.608523 399.6 
L 417.844886 399.6 
z
" clip-path="url(#pd27d381c84)" style="fill: #808080; opacity: 0.5"/>
   </g>
   <g id="patch_11">
    <path d="M 442.026705 399.6 
L 463.790341 399.6 
L 463.790341 337.006452 
L 442.026705 337.006452 
z
" clip-path="url(#pd27d381c84)" style="fill: #808080; opacity: 0.5"/>
   </g>
   <g id="patch_12">
    <path d="M 466.208523 399.6 
L 487.972159 399.6 
L 487.972159 269.941935 
L 466.208523 269.941935 
z
" clip-path="url(#pd27d381c84)" style="fill: #808080; opacity: 0.5"/>
   </g>
   <g id="patch_13">
    <path d="M 490.390341 399.6 
L 512.153977 399.6 
L 512.153977 274.412903 
L 490.390341 274.412903 
z
" clip-path="url(#pd27d381c84)" style="fill: #808080; opacity: 0.5"/>
   </g>
   <g id="patch_14">
    <path d="M 514.572159 399.6 
L 536.335795 399.6 
L 536.335795 296.767742 
L 514.572159 296.767742 
z
" clip-path="url(#pd27d381c84)" style="fill: #808080; opacity: 0.5"/>
   </g>
   <g id="patch_15">
    <path d="M 538.753977 399.6 
L 560.517614 399.6 
L 560.517614 399.6 
L 538.753977 399.6 
z
" clip-path="url(#pd27d381c84)" style="fill: #808080; opacity: 0.5"/>
   </g>
   <g id="patch_16">
    <path d="M 562.935795 399.6 
L 584.699432 399.6 
L 584.699432 395.129032 
L 562.935795 395.129032 
z
" clip-path="url(#pd27d381c84)" style="fill: #808080; opacity: 0.5"/>
   </g>
   <g id="patch_17">
    <path d="M 587.117614 399.6 
L 608.88125 399.6 
L 608.88125 395.129032 
L 587.117614 395.129032 
z
" clip-path="url(#pd27d381c84)" style="fill: #808080; opacity: 0.5"/>
   </g>
   <g id="matplotlib.axis_3">
    <g id="xtick_8">
     <g id="line2d_8">
      <g>
       <use xlink:href="#mf6de406d0d" x="368.272159" y="399.6" style="stroke: #000000; stroke-width: 0.8"/>
      </g>
     </g>
     <g id="text_10">
      <!-- 0 -->
      <g transform="translate(365.090909 414.198437) scale(0.1 -0.1)">
       <use xlink:href="#DejaVuSans-30"/>
      </g>
     </g>
    </g>
    <g id="xtick_9">
     <g id="line2d_9">
      <g>
       <use xlink:href="#mf6de406d0d" x="407.275092" y="399.6" style="stroke: #000000; stroke-width: 0.8"/>
      </g>
     </g>
     <g id="text_11">
      <!-- 10 -->
      <g transform="translate(400.912592 414.198437) scale(0.1 -0.1)">
       <use xlink:href="#DejaVuSans-31"/>
       <use xlink:href="#DejaVuSans-30" transform="translate(63.623047 0)"/>
      </g>
     </g>
    </g>
    <g id="xtick_10">
     <g id="line2d_10">
      <g>
       <use xlink:href="#mf6de406d0d" x="446.278024" y="399.6" style="stroke: #000000; stroke-width: 0.8"/>
      </g>
     </g>
     <g id="text_12">
      <!-- 20 -->
      <g transform="translate(439.915524 414.198437) scale(0.1 -0.1)">
       <use xlink:href="#DejaVuSans-32"/>
       <use xlink:href="#DejaVuSans-30" transform="translate(63.623047 0)"/>
      </g>
     </g>
    </g>
    <g id="xtick_11">
     <g id="line2d_11">
      <g>
       <use xlink:href="#mf6de406d0d" x="485.280957" y="399.6" style="stroke: #000000; stroke-width: 0.8"/>
      </g>
     </g>
     <g id="text_13">
      <!-- 30 -->
      <g transform="translate(478.918457 414.198437) scale(0.1 -0.1)">
       <use xlink:href="#DejaVuSans-33"/>
       <use xlink:href="#DejaVuSans-30" transform="translate(63.623047 0)"/>
      </g>
     </g>
    </g>
    <g id="xtick_12">
     <g id="line2d_12">
      <g>
       <use xlink:href="#mf6de406d0d" x="524.283889" y="399.6" style="stroke: #000000; stroke-width: 0.8"/>
      </g>
     </g>
     <g id="text_14">
      <!-- 40 -->
      <g transform="translate(517.921389 414.198437) scale(0.1 -0.1)">
       <use xlink:href="#DejaVuSans-34"/>
       <use xlink:href="#DejaVuSans-30" transform="translate(63.623047 0)"/>
      </g>
     </g>
    </g>
    <g id="xtick_13">
     <g id="line2d_13">
      <g>
       <use xlink:href="#mf6de406d0d" x="563.286822" y="399.6" style="stroke: #000000; stroke-width: 0.8"/>
      </g>
     </g>
     <g id="text_15">
      <!-- 50 -->
      <g transform="translate(556.924322 414.198437) scale(0.1 -0.1)">
       <use xlink:href="#DejaVuSans-35"/>
       <use xlink:href="#DejaVuSans-30" transform="translate(63.623047 0)"/>
      </g>
     </g>
    </g>
    <g id="xtick_14">
     <g id="line2d_14">
      <g>
       <use xlink:href="#mf6de406d0d" x="602.289754" y="399.6" style="stroke: #000000; stroke-width: 0.8"/>
      </g>
     </g>
     <g id="text_16">
      <!-- 60 -->
      <g transform="translate(595.927254 414.198437) scale(0.1 -0.1)">
       <use xlink:href="#DejaVuSans-36"/>
       <use xlink:href="#DejaVuSans-30" transform="translate(63.623047 0)"/>
      </g>
     </g>
    </g>
    <g id="text_17">
     <!-- V -->
     <g transform="translate(485.282188 429.705625) scale(0.12 -0.12)">
      <use xlink:href="#ComicSansMS-56"/>
     </g>
    </g>
   </g>
   <g id="matplotlib.axis_4">
    <g id="ytick_1">
     <g id="line2d_15">
      <defs>
       <path id="mb2e54322bb" d="M 0 0 
L -3.5 0 
" style="stroke: #000000; stroke-width: 0.8"/>
      </defs>
      <g>
       <use xlink:href="#mb2e54322bb" x="356.18125" y="399.6" style="stroke: #000000; stroke-width: 0.8"/>
      </g>
     </g>
     <g id="text_18">
      <!-- 0.00 -->
      <g transform="translate(326.915625 403.399219) scale(0.1 -0.1)">
       <defs>
        <path id="DejaVuSans-2e" d="M 684 794 
L 1344 794 
L 1344 0 
L 684 0 
L 684 794 
z
" transform="scale(0.015625)"/>
       </defs>
       <use xlink:href="#DejaVuSans-30"/>
       <use xlink:href="#DejaVuSans-2e" transform="translate(63.623047 0)"/>
       <use xlink:href="#DejaVuSans-30" transform="translate(95.410156 0)"/>
       <use xlink:href="#DejaVuSans-30" transform="translate(159.033203 0)"/>
      </g>
     </g>
    </g>
    <g id="ytick_2">
     <g id="line2d_16">
      <g>
       <use xlink:href="#mb2e54322bb" x="356.18125" y="344.16" style="stroke: #000000; stroke-width: 0.8"/>
      </g>
     </g>
     <g id="text_19">
      <!-- 0.02 -->
      <g transform="translate(326.915625 347.959219) scale(0.1 -0.1)">
       <use xlink:href="#DejaVuSans-30"/>
       <use xlink:href="#DejaVuSans-2e" transform="translate(63.623047 0)"/>
       <use xlink:href="#DejaVuSans-30" transform="translate(95.410156 0)"/>
       <use xlink:href="#DejaVuSans-32" transform="translate(159.033203 0)"/>
      </g>
     </g>
    </g>
    <g id="ytick_3">
     <g id="line2d_17">
      <g>
       <use xlink:href="#mb2e54322bb" x="356.18125" y="288.72" style="stroke: #000000; stroke-width: 0.8"/>
      </g>
     </g>
     <g id="text_20">
      <!-- 0.04 -->
      <g transform="translate(326.915625 292.519219) scale(0.1 -0.1)">
       <use xlink:href="#DejaVuSans-30"/>
       <use xlink:href="#DejaVuSans-2e" transform="translate(63.623047 0)"/>
       <use xlink:href="#DejaVuSans-30" transform="translate(95.410156 0)"/>
       <use xlink:href="#DejaVuSans-34" transform="translate(159.033203 0)"/>
      </g>
     </g>
    </g>
    <g id="ytick_4">
     <g id="line2d_18">
      <g>
       <use xlink:href="#mb2e54322bb" x="356.18125" y="233.28" style="stroke: #000000; stroke-width: 0.8"/>
      </g>
     </g>
     <g id="text_21">
      <!-- 0.06 -->
      <g transform="translate(326.915625 237.079219) scale(0.1 -0.1)">
       <use xlink:href="#DejaVuSans-30"/>
       <use xlink:href="#DejaVuSans-2e" transform="translate(63.623047 0)"/>
       <use xlink:href="#DejaVuSans-30" transform="translate(95.410156 0)"/>
       <use xlink:href="#DejaVuSans-36" transform="translate(159.033203 0)"/>
      </g>
     </g>
    </g>
    <g id="ytick_5">
     <g id="line2d_19">
      <g>
       <use xlink:href="#mb2e54322bb" x="356.18125" y="177.84" style="stroke: #000000; stroke-width: 0.8"/>
      </g>
     </g>
     <g id="text_22">
      <!-- 0.08 -->
      <g transform="translate(326.915625 181.639219) scale(0.1 -0.1)">
       <defs>
        <path id="DejaVuSans-38" d="M 2034 2216 
Q 1584 2216 1326 1975 
Q 1069 1734 1069 1313 
Q 1069 891 1326 650 
Q 1584 409 2034 409 
Q 2484 409 2743 651 
Q 3003 894 3003 1313 
Q 3003 1734 2745 1975 
Q 2488 2216 2034 2216 
z
M 1403 2484 
Q 997 2584 770 2862 
Q 544 3141 544 3541 
Q 544 4100 942 4425 
Q 1341 4750 2034 4750 
Q 2731 4750 3128 4425 
Q 3525 4100 3525 3541 
Q 3525 3141 3298 2862 
Q 3072 2584 2669 2484 
Q 3125 2378 3379 2068 
Q 3634 1759 3634 1313 
Q 3634 634 3220 271 
Q 2806 -91 2034 -91 
Q 1263 -91 848 271 
Q 434 634 434 1313 
Q 434 1759 690 2068 
Q 947 2378 1403 2484 
z
M 1172 3481 
Q 1172 3119 1398 2916 
Q 1625 2713 2034 2713 
Q 2441 2713 2670 2916 
Q 2900 3119 2900 3481 
Q 2900 3844 2670 4047 
Q 2441 4250 2034 4250 
Q 1625 4250 1398 4047 
Q 1172 3844 1172 3481 
z
" transform="scale(0.015625)"/>
       </defs>
       <use xlink:href="#DejaVuSans-30"/>
       <use xlink:href="#DejaVuSans-2e" transform="translate(63.623047 0)"/>
       <use xlink:href="#DejaVuSans-30" transform="translate(95.410156 0)"/>
       <use xlink:href="#DejaVuSans-38" transform="translate(159.033203 0)"/>
      </g>
     </g>
    </g>
    <g id="ytick_6">
     <g id="line2d_20">
      <g>
       <use xlink:href="#mb2e54322bb" x="356.18125" y="122.4" style="stroke: #000000; stroke-width: 0.8"/>
      </g>
     </g>
     <g id="text_23">
      <!-- 0.10 -->
      <g transform="translate(326.915625 126.199219) scale(0.1 -0.1)">
       <use xlink:href="#DejaVuSans-30"/>
       <use xlink:href="#DejaVuSans-2e" transform="translate(63.623047 0)"/>
       <use xlink:href="#DejaVuSans-31" transform="translate(95.410156 0)"/>
       <use xlink:href="#DejaVuSans-30" transform="translate(159.033203 0)"/>
      </g>
     </g>
    </g>
   </g>
   <g id="line2d_21">
    <path d="M 368.272159 395.016863 
L 372.871304 392.946061 
L 378.438689 390.460236 
L 381.343412 389.40943 
L 383.764015 388.761539 
L 385.942557 388.394685 
L 388.121099 388.252464 
L 390.299641 388.339823 
L 392.478183 388.647855 
L 394.898786 389.222346 
L 397.561448 390.084639 
L 401.192352 391.517737 
L 409.4224 394.856937 
L 412.327123 395.75407 
L 414.747726 396.291065 
L 416.926268 396.571658 
L 419.10481 396.62583 
L 421.041292 396.45502 
L 422.977774 396.049418 
L 424.672195 395.478159 
L 426.366617 394.68209 
L 428.061039 393.63817 
L 429.755461 392.32277 
L 431.449882 390.712471 
L 433.144304 388.785068 
L 434.838726 386.520731 
L 436.533147 383.903258 
L 438.469629 380.465208 
L 440.406111 376.544295 
L 442.342593 372.145719 
L 444.521135 366.650244 
L 446.941738 359.922373 
L 449.846461 351.119956 
L 453.477364 339.32334 
L 463.159774 307.436411 
L 465.822437 299.569737 
L 468.243039 293.085982 
L 470.421581 287.908448 
L 472.358063 283.897649 
L 474.052485 280.879854 
L 475.746907 278.338824 
L 477.199268 276.543744 
L 478.651629 275.096619 
L 480.103991 273.984002 
L 481.556352 273.184679 
L 483.008714 272.670228 
L 484.461075 272.406073 
L 485.913437 272.352948 
L 487.607858 272.501418 
L 489.786401 272.920894 
L 499.952931 275.21103 
L 506.246497 276.244462 
L 508.182979 276.835047 
L 509.877401 277.588784 
L 511.329762 278.465977 
L 512.782124 279.602048 
L 514.234485 281.038025 
L 515.686847 282.81133 
L 517.139208 284.954211 
L 518.591569 287.492178 
L 520.043931 290.442507 
L 521.738353 294.415425 
L 523.432774 298.953436 
L 525.369256 304.79551 
L 527.547798 312.111244 
L 530.210461 321.891774 
L 534.809606 339.860166 
L 538.68257 354.622019 
L 541.345232 363.874278 
L 543.523774 370.649436 
L 545.460256 375.977169 
L 547.154678 380.07059 
L 548.8491 383.627762 
L 550.543521 386.660125 
L 552.237943 389.192598 
L 553.690305 390.991914 
L 555.142666 392.476198 
L 556.595027 393.674338 
L 558.047389 394.616393 
L 559.741811 395.432012 
L 561.436232 395.986673 
L 563.372714 396.357211 
L 565.309196 396.504091 
L 567.729799 396.45368 
L 570.876582 396.134159 
L 576.928088 395.217975 
L 581.769293 394.595015 
L 585.642256 394.326175 
L 589.27316 394.308258 
L 592.904064 394.524212 
L 596.777028 394.988784 
L 601.376172 395.777324 
L 610.090341 397.497761 
L 610.090341 397.497761 
" clip-path="url(#pd27d381c84)" style="fill: none; stroke: #000000; stroke-width: 2; stroke-linecap: square"/>
   </g>
   <g id="line2d_22">
    <path d="M 492.571911 205.56 
L 492.571911 266.544 
" clip-path="url(#pd27d381c84)" style="fill: none; stroke-dasharray: 5.55,2.4; stroke-dashoffset: 0; stroke: #808080; stroke-width: 1.5"/>
   </g>
   <g id="line2d_23">
    <path d="M 475.523139 205.56 
L 475.523139 266.544 
" clip-path="url(#pd27d381c84)" style="fill: none; stroke-dasharray: 5.55,2.4; stroke-dashoffset: 0; stroke: #808080; stroke-width: 1.5"/>
   </g>
   <g id="line2d_24">
    <path d="M 513.226573 205.56 
L 513.226573 266.544 
" clip-path="url(#pd27d381c84)" style="fill: none; stroke-dasharray: 5.55,2.4; stroke-dashoffset: 0; stroke: #808080; stroke-width: 1.5"/>
   </g>
   <g id="patch_18">
    <path d="M 356.18125 399.6 
L 356.18125 122.4 
" style="fill: none; stroke: #000000; stroke-width: 0.8; stroke-linejoin: miter; stroke-linecap: square"/>
   </g>
   <g id="patch_19">
    <path d="M 622.18125 399.6 
L 622.18125 122.4 
" style="fill: none; stroke: #000000; stroke-width: 0.8; stroke-linejoin: miter; stroke-linecap: square"/>
   </g>
   <g id="patch_20">
    <path d="M 356.18125 399.6 
L 622.18125 399.6 
" style="fill: none; stroke: #000000; stroke-width: 0.8; stroke-linejoin: miter; stroke-linecap: square"/>
   </g>
   <g id="patch_21">
    <path d="M 356.18125 122.4 
L 622.18125 122.4 
" style="fill: none; stroke: #000000; stroke-width: 0.8; stroke-linejoin: miter; stroke-linecap: square"/>
   </g>
   <g id="text_24">
    <!-- median -->
    <g transform="translate(494.213174 171.8015) rotate(-90) scale(0.1 -0.1)">
     <defs>
      <path id="ComicSansMS-6d" d="M 4403 -259 
Q 4147 -259 4103 13 
Q 4047 356 3991 981 
L 3884 1950 
Q 3853 2166 3778 2372 
Q 3672 2653 3547 2653 
Q 3431 2653 3116 2456 
Q 2816 2275 2722 2166 
Q 2719 1872 2738 1578 
L 2831 744 
Q 2891 250 2891 -72 
Q 2891 -209 2805 -298 
Q 2719 -388 2584 -388 
Q 2450 -388 2364 -298 
Q 2278 -209 2278 -72 
Q 2278 306 2201 1045 
Q 2125 1784 2125 2163 
Q 2125 2494 2031 2678 
Q 1813 2578 1588 2353 
L 1219 1941 
Q 1169 1866 1059 1744 
Q 1059 1556 1025 1190 
Q 991 825 991 650 
Q 991 556 1020 387 
Q 1050 219 1050 144 
Q 1050 16 954 -71 
Q 859 -159 731 -159 
Q 378 -159 378 644 
Q 378 831 412 1203 
Q 447 1575 447 1763 
Q 447 1928 417 2259 
Q 388 2591 388 2759 
Q 388 3469 706 3469 
Q 828 3469 929 3362 
Q 1031 3256 1031 3131 
Q 1031 3072 1015 2947 
Q 1000 2822 1000 2756 
L 1006 2428 
Q 1169 2763 1484 3033 
Q 1800 3303 2022 3303 
Q 2513 3303 2697 2816 
Q 2869 3044 3106 3158 
Q 3344 3272 3650 3272 
Q 4172 3272 4363 2709 
Q 4400 2597 4491 1831 
Q 4578 1294 4716 41 
Q 4725 -84 4631 -171 
Q 4538 -259 4403 -259 
z
" transform="scale(0.015625)"/>
     </defs>
     <use xlink:href="#ComicSansMS-6d"/>
     <use xlink:href="#ComicSansMS-65" transform="translate(77.685547 0)"/>
     <use xlink:href="#ComicSansMS-64" transform="translate(132.470703 0)"/>
     <use xlink:href="#ComicSansMS-69" transform="translate(191.210938 0)"/>
     <use xlink:href="#ComicSansMS-61" transform="translate(219.238281 0)"/>
     <use xlink:href="#ComicSansMS-6e" transform="translate(270.410156 0)"/>
    </g>
   </g>
   <g id="text_25">
    <!-- Q1 -->
    <g transform="translate(478.01684 178.928812) rotate(-90) scale(0.1 -0.1)">
     <defs>
      <path id="ComicSansMS-51" d="M 5144 -1369 
Q 5006 -1369 4403 -834 
L 3656 -150 
Q 3128 -363 2609 -363 
Q 1669 -363 955 387 
Q 241 1138 241 2084 
Q 241 3200 1072 3978 
Q 1884 4734 2994 4734 
Q 4163 4734 4766 3859 
Q 5278 3109 5278 1919 
Q 5278 884 4266 178 
L 4947 -450 
L 5350 -794 
Q 5469 -906 5469 -1038 
Q 5469 -1166 5373 -1267 
Q 5278 -1369 5144 -1369 
z
M 2994 4088 
Q 2138 4088 1519 3516 
Q 881 2928 881 2084 
Q 881 1400 1409 847 
Q 1941 284 2609 284 
Q 2825 284 3053 338 
Q 2450 863 2450 1166 
Q 2450 1303 2551 1393 
Q 2653 1484 2778 1484 
Q 2928 1484 3044 1334 
Q 3353 931 3744 613 
Q 4634 1131 4634 1919 
Q 4634 2847 4256 3425 
Q 3825 4088 2994 4088 
z
" transform="scale(0.015625)"/>
      <path id="ComicSansMS-31" d="M 2200 -3 
L 1578 -3 
L 959 0 
Q 741 0 653 28 
Q 494 84 494 266 
Q 494 581 984 581 
L 1134 578 
L 1263 572 
Q 1263 722 1236 1015 
Q 1209 1309 1209 1456 
Q 1209 1853 1281 2663 
Q 1350 3459 1347 3872 
Q 928 3547 813 3547 
Q 688 3547 595 3640 
Q 503 3734 503 3856 
Q 503 4003 772 4213 
Q 941 4331 1250 4594 
Q 1525 4872 1775 4872 
Q 1984 4872 1984 4631 
Q 1984 4559 1965 4417 
Q 1947 4275 1947 4203 
Q 1947 4100 1958 3890 
Q 1969 3681 1969 3578 
Q 1969 3222 1894 2515 
Q 1819 1809 1819 1456 
Q 1819 1275 1844 1015 
Q 1869 756 1872 591 
L 2200 597 
Q 2331 597 2417 511 
Q 2503 425 2503 297 
Q 2503 166 2417 81 
Q 2331 -3 2200 -3 
z
" transform="scale(0.015625)"/>
     </defs>
     <use xlink:href="#ComicSansMS-51"/>
     <use xlink:href="#ComicSansMS-31" transform="translate(87.646484 0)"/>
    </g>
   </g>
   <g id="text_26">
    <!-- Q3 -->
    <g transform="translate(513.835102 179.729594) rotate(-90) scale(0.1 -0.1)">
     <defs>
      <path id="ComicSansMS-33" d="M 1891 -144 
Q 1419 -144 1044 53 
Q 622 281 475 694 
Q 456 750 456 803 
Q 456 928 551 1011 
Q 647 1094 772 1094 
Q 897 1094 988 978 
L 1131 763 
Q 1244 609 1434 532 
Q 1625 456 1891 456 
Q 2231 456 2488 669 
Q 2759 894 2759 1219 
Q 2759 1691 2413 1972 
Q 2106 2216 1600 2269 
Q 1253 2303 1253 2550 
Q 1253 2734 1525 2831 
L 2272 3016 
Q 2488 3094 2597 3226 
Q 2706 3359 2709 3550 
Q 2716 3825 2497 3994 
Q 2269 4169 1856 4169 
Q 1644 4169 1444 4066 
L 1091 3844 
Q 988 3778 925 3778 
Q 800 3778 711 3873 
Q 622 3969 622 4091 
Q 622 4338 1100 4566 
Q 1516 4769 1784 4769 
Q 2456 4769 2850 4472 
Q 3272 4153 3272 3563 
Q 3272 2828 2678 2594 
Q 2625 2572 2556 2550 
Q 2972 2397 3178 2092 
Q 3384 1788 3384 1331 
Q 3384 716 2950 286 
Q 2516 -144 1891 -144 
z
" transform="scale(0.015625)"/>
     </defs>
     <use xlink:href="#ComicSansMS-51"/>
     <use xlink:href="#ComicSansMS-33" transform="translate(87.646484 0)"/>
    </g>
   </g>
   <g id="text_27">
    <!-- Kernel density estimation -->
    <g transform="translate(406.054063 99.229) scale(0.14 -0.14)">
     <defs>
      <path id="ComicSansMS-4b" d="M 3603 -128 
Q 3128 -128 2250 706 
L 1316 1647 
L 1316 1603 
L 1313 -34 
Q 1313 -344 1041 -344 
Q 863 -344 756 -188 
Q 669 -59 669 91 
Q 669 822 712 2278 
Q 756 3734 756 4463 
Q 756 4597 845 4690 
Q 934 4784 1066 4784 
Q 1200 4784 1289 4690 
Q 1378 4597 1378 4463 
Q 1378 4159 1341 3519 
Q 1303 2900 1306 2572 
Q 1725 2969 2253 3569 
L 3150 4609 
Q 3256 4731 3388 4731 
Q 3513 4731 3609 4637 
Q 3706 4544 3706 4409 
Q 3706 4203 2900 3309 
Q 2344 2700 1750 2116 
Q 2125 1722 2925 984 
L 3253 709 
Q 3431 572 3638 503 
Q 3884 422 3884 194 
Q 3884 88 3819 -9 
Q 3738 -128 3603 -128 
z
" transform="scale(0.015625)"/>
      <path id="ComicSansMS-79" d="M 3159 2788 
L 2078 450 
Q 1678 -403 1466 -978 
L 1259 -1584 
Q 1178 -1809 978 -1809 
Q 847 -1809 751 -1723 
Q 656 -1638 656 -1509 
Q 656 -1197 1331 300 
L 213 2453 
L 72 2681 
Q -13 2825 -13 2922 
Q -13 3050 85 3147 
Q 184 3244 306 3244 
Q 450 3244 528 3134 
Q 1059 2397 1669 1034 
L 2131 2113 
Q 2381 2672 2613 3075 
Q 2713 3250 2875 3250 
Q 3003 3250 3101 3159 
Q 3200 3069 3200 2944 
Q 3200 2875 3159 2788 
z
" transform="scale(0.015625)"/>
      <path id="ComicSansMS-6f" d="M 1606 -184 
Q 1081 -184 703 203 
Q 281 634 259 1363 
Q 241 2069 616 2606 
Q 1053 3241 1834 3241 
Q 2459 3241 2781 2669 
Q 3038 2206 3028 1556 
Q 3019 863 2666 372 
Q 2266 -184 1606 -184 
z
M 1794 2606 
Q 1334 2609 1078 2169 
Q 875 1816 875 1363 
Q 875 909 1122 656 
Q 1328 447 1606 447 
Q 1931 447 2166 684 
Q 2431 947 2447 1394 
Q 2491 2603 1794 2606 
z
" transform="scale(0.015625)"/>
     </defs>
     <use xlink:href="#ComicSansMS-4b"/>
     <use xlink:href="#ComicSansMS-65" transform="translate(61.083984 0)"/>
     <use xlink:href="#ComicSansMS-72" transform="translate(115.869141 0)"/>
     <use xlink:href="#ComicSansMS-6e" transform="translate(163.916016 0)"/>
     <use xlink:href="#ComicSansMS-65" transform="translate(216.259766 0)"/>
     <use xlink:href="#ComicSansMS-6c" transform="translate(271.044922 0)"/>
     <use xlink:href="#ComicSansMS-20" transform="translate(298.4375 0)"/>
     <use xlink:href="#ComicSansMS-64" transform="translate(328.320312 0)"/>
     <use xlink:href="#ComicSansMS-65" transform="translate(387.060547 0)"/>
     <use xlink:href="#ComicSansMS-6e" transform="translate(441.845703 0)"/>
     <use xlink:href="#ComicSansMS-73" transform="translate(494.189453 0)"/>
     <use xlink:href="#ComicSansMS-69" transform="translate(542.871094 0)"/>
     <use xlink:href="#ComicSansMS-74" transform="translate(570.898438 0)"/>
     <use xlink:href="#ComicSansMS-79" transform="translate(618.017578 0)"/>
     <use xlink:href="#ComicSansMS-20" transform="translate(670.068359 0)"/>
     <use xlink:href="#ComicSansMS-65" transform="translate(699.951172 0)"/>
     <use xlink:href="#ComicSansMS-73" transform="translate(754.736328 0)"/>
     <use xlink:href="#ComicSansMS-74" transform="translate(803.417969 0)"/>
     <use xlink:href="#ComicSansMS-69" transform="translate(850.537109 0)"/>
     <use xlink:href="#ComicSansMS-6d" transform="translate(878.564453 0)"/>
     <use xlink:href="#ComicSansMS-61" transform="translate(956.25 0)"/>
     <use xlink:href="#ComicSansMS-74" transform="translate(1007.421875 0)"/>
     <use xlink:href="#ComicSansMS-69" transform="translate(1054.541016 0)"/>
     <use xlink:href="#ComicSansMS-6f" transform="translate(1082.568359 0)"/>
     <use xlink:href="#ComicSansMS-6e" transform="translate(1135.15625 0)"/>
    </g>
    <!-- and frequency histogram (k = 10) -->
    <g transform="translate(382.191719 116.4) scale(0.14 -0.14)">
     <defs>
      <path id="ComicSansMS-66" d="M 2534 4394 
Q 1778 4394 1688 3344 
L 1678 3150 
Q 2209 3188 2366 3188 
Q 2863 3188 2863 2875 
Q 2863 2647 2619 2603 
Q 2513 2584 2370 2589 
Q 2228 2594 1650 2547 
L 1625 1834 
Q 1625 1641 1637 1253 
Q 1650 866 1650 675 
Q 1650 81 1581 -250 
Q 1528 -500 1291 -500 
Q 1163 -500 1072 -417 
Q 981 -334 981 -209 
Q 981 -184 988 -147 
Q 1053 259 1053 738 
L 1044 1591 
L 1044 2497 
Q 653 2466 550 2466 
Q 234 2466 234 2769 
Q 234 3078 781 3094 
L 1081 3103 
Q 1091 3278 1128 3578 
Q 1209 4272 1478 4600 
Q 1803 4997 2494 4997 
Q 2941 4997 2941 4694 
Q 2941 4394 2534 4394 
z
" transform="scale(0.015625)"/>
      <path id="ComicSansMS-71" d="M 2841 984 
L 2697 -216 
Q 2619 -884 2619 -1425 
Q 2619 -1563 2534 -1650 
Q 2450 -1738 2313 -1738 
Q 2025 -1738 2006 -1422 
Q 1997 -1284 2022 -1075 
L 2063 -728 
L 2122 -38 
Q 1853 -109 1744 -109 
Q 1063 -109 641 244 
Q 188 622 188 1291 
Q 188 2206 703 2759 
Q 1231 3328 2141 3322 
Q 2313 3322 2400 3188 
Q 2534 3306 2638 3306 
Q 2763 3306 2855 3206 
Q 2947 3106 2947 2978 
Q 2947 2056 2841 984 
z
M 1919 2781 
Q 1344 2678 1050 2197 
Q 813 1806 813 1278 
Q 813 909 1038 678 
Q 1284 422 1722 434 
Q 2019 444 2156 756 
Q 2306 1106 2316 1947 
L 2359 2781 
Q 2297 2759 2141 2772 
Q 1969 2791 1919 2781 
z
" transform="scale(0.015625)"/>
      <path id="ComicSansMS-75" d="M 2984 1825 
Q 2984 1600 2987 1150 
Q 2991 700 2991 475 
Q 2991 406 3002 265 
Q 3013 125 3013 56 
Q 3013 -78 2922 -164 
Q 2831 -250 2700 -250 
Q 2459 -250 2394 47 
Q 2003 -156 1494 -156 
Q 1084 -156 816 25 
Q 519 225 463 609 
Q 341 1438 341 2084 
Q 341 2513 434 3059 
Q 478 3331 731 3331 
Q 866 3331 956 3245 
Q 1047 3159 1047 3025 
Q 1047 2881 1001 2565 
Q 956 2250 956 2084 
Q 956 1563 990 1191 
Q 1025 819 1094 594 
Q 1197 538 1297 508 
Q 1397 478 1494 478 
Q 1913 478 2378 613 
L 2375 1247 
L 2369 1853 
Q 2369 2528 2428 3025 
Q 2463 3313 2731 3313 
Q 2866 3313 2956 3225 
Q 3047 3138 3041 3006 
L 2984 1825 
z
" transform="scale(0.015625)"/>
      <path id="ComicSansMS-63" d="M 1847 -197 
Q 1206 -197 778 191 
Q 328 597 328 1263 
Q 328 1897 750 2572 
Q 1219 3322 1806 3322 
Q 2113 3322 2491 3178 
Q 2969 2994 2969 2728 
Q 2969 2609 2891 2517 
Q 2813 2425 2697 2425 
Q 2606 2425 2539 2479 
Q 2472 2534 2409 2588 
Q 2225 2734 1806 2734 
Q 1488 2734 1175 2166 
Q 891 1644 891 1263 
Q 891 850 1172 613 
Q 1434 391 1847 391 
Q 2034 391 2247 491 
L 2609 684 
Q 2703 734 2744 734 
Q 2859 734 2943 642 
Q 3028 550 3028 431 
Q 3028 203 2547 -9 
Q 2125 -197 1847 -197 
z
" transform="scale(0.015625)"/>
      <path id="ComicSansMS-68" d="M 3050 -194 
Q 2828 -194 2759 44 
Q 2688 300 2628 772 
Q 2572 1225 2572 1516 
Q 2572 1597 2580 1762 
Q 2588 1928 2588 2009 
Q 2588 2597 2294 2597 
Q 1897 2597 1584 2238 
Q 1425 2053 1147 1534 
Q 1147 344 1047 125 
Q 959 -69 775 -69 
Q 647 -69 550 18 
Q 453 106 453 231 
Q 453 275 481 369 
Q 506 447 516 825 
L 525 1288 
L 534 3584 
Q 556 3972 556 4106 
Q 556 4266 526 4408 
Q 497 4550 497 4703 
Q 497 4834 587 4920 
Q 678 5006 809 5006 
Q 1066 5006 1109 4731 
Q 1159 4428 1159 4184 
Q 1159 3856 1138 3500 
Q 1119 3159 1122 2816 
L 1125 2541 
Q 1381 2884 1673 3054 
Q 1966 3225 2294 3225 
Q 2813 3225 3006 2888 
Q 3144 2650 3163 2088 
L 3188 1491 
L 3250 841 
Q 3294 475 3356 197 
Q 3369 144 3369 106 
Q 3369 -22 3275 -108 
Q 3181 -194 3050 -194 
z
" transform="scale(0.015625)"/>
      <path id="ComicSansMS-28" d="M 2175 4728 
Q 2175 4619 1981 4409 
Q 1838 4266 1697 4122 
Q 1350 3728 1153 2997 
Q 981 2359 981 1744 
Q 981 156 1700 -584 
Q 1844 -697 1991 -809 
Q 2172 -953 2172 -1094 
Q 2172 -1197 2090 -1273 
Q 2009 -1350 1903 -1350 
Q 1809 -1350 1678 -1278 
Q 356 -538 356 1816 
Q 356 2663 697 3531 
Q 1078 4497 1697 4931 
Q 1822 5019 1894 5019 
Q 2006 5019 2090 4930 
Q 2175 4841 2175 4728 
z
" transform="scale(0.015625)"/>
      <path id="ComicSansMS-6b" d="M 3038 -128 
Q 2866 -128 2772 53 
Q 2609 369 2281 800 
L 1728 1553 
Q 1547 1409 1166 1150 
Q 1131 666 1131 206 
Q 1131 66 1045 -21 
Q 959 -109 825 -109 
Q 509 -109 509 316 
Q 509 575 545 1092 
Q 581 1609 581 1869 
Q 581 2344 595 2955 
Q 609 3566 609 4034 
Q 609 4175 595 4365 
Q 581 4556 581 4697 
Q 581 4838 667 4925 
Q 753 5013 888 5013 
Q 1022 5013 1108 4925 
Q 1194 4838 1194 4697 
Q 1194 4553 1209 4358 
Q 1225 4163 1225 4019 
L 1203 3013 
Q 1188 2469 1194 1925 
Q 1619 2250 2013 2638 
L 2700 3347 
Q 2803 3453 2922 3453 
Q 3044 3453 3142 3356 
Q 3241 3259 3241 3131 
Q 3241 3025 3150 2922 
Q 2766 2472 2203 1956 
L 2884 1028 
Q 3363 375 3363 178 
Q 3363 53 3264 -37 
Q 3166 -128 3038 -128 
z
" transform="scale(0.015625)"/>
      <path id="ComicSansMS-3d" d="M 1013 3122 
L 2472 3119 
Q 2750 3119 2750 2841 
Q 2750 2563 2472 2563 
L 1009 2566 
Q 938 2566 795 2558 
Q 653 2550 584 2550 
Q 463 2550 386 2631 
Q 309 2713 309 2831 
Q 309 3056 572 3106 
Q 641 3122 1013 3122 
z
M 1191 1444 
Q 1397 1444 1809 1434 
Q 2222 1425 2428 1425 
Q 2706 1425 2706 1147 
Q 2706 869 2428 869 
Q 2222 869 1809 878 
Q 1397 888 1191 888 
Q 1097 888 909 875 
Q 722 863 631 863 
Q 344 863 344 1141 
Q 344 1397 613 1419 
Q 959 1444 1191 1444 
z
" transform="scale(0.015625)"/>
      <path id="ComicSansMS-30" d="M 1909 -122 
Q 959 -122 522 747 
Q 191 1416 191 2488 
Q 191 3394 622 4069 
Q 1131 4859 2006 4859 
Q 2828 4859 3288 4159 
Q 3684 3553 3684 2681 
Q 3684 1281 3240 579 
Q 2797 -122 1909 -122 
z
M 2003 4256 
Q 1422 4256 1081 3666 
Q 797 3172 797 2538 
Q 797 1509 1075 993 
Q 1353 478 1909 478 
Q 2572 478 2859 1234 
Q 3059 1759 3059 2566 
Q 3059 3413 2795 3834 
Q 2531 4256 2003 4256 
z
" transform="scale(0.015625)"/>
      <path id="ComicSansMS-29" d="M 2175 1816 
Q 2175 -538 850 -1278 
Q 722 -1350 628 -1350 
Q 522 -1350 440 -1273 
Q 359 -1197 359 -1094 
Q 359 -953 541 -809 
Q 684 -697 831 -584 
Q 1550 156 1550 1744 
Q 1550 2359 1378 2997 
Q 1178 3728 834 4122 
Q 691 4266 550 4409 
Q 356 4619 356 4728 
Q 356 4841 439 4930 
Q 522 5019 634 5019 
Q 706 5019 834 4931 
Q 1453 4497 1834 3531 
Q 2175 2663 2175 1816 
z
" transform="scale(0.015625)"/>
     </defs>
     <use xlink:href="#ComicSansMS-61"/>
     <use xlink:href="#ComicSansMS-6e" transform="translate(51.171875 0)"/>
     <use xlink:href="#ComicSansMS-64" transform="translate(103.515625 0)"/>
     <use xlink:href="#ComicSansMS-20" transform="translate(162.255859 0)"/>
     <use xlink:href="#ComicSansMS-66" transform="translate(192.138672 0)"/>
     <use xlink:href="#ComicSansMS-72" transform="translate(242.96875 0)"/>
     <use xlink:href="#ComicSansMS-65" transform="translate(291.015625 0)"/>
     <use xlink:href="#ComicSansMS-71" transform="translate(345.800781 0)"/>
     <use xlink:href="#ComicSansMS-75" transform="translate(397.802734 0)"/>
     <use xlink:href="#ComicSansMS-65" transform="translate(449.804688 0)"/>
     <use xlink:href="#ComicSansMS-6e" transform="translate(504.589844 0)"/>
     <use xlink:href="#ComicSansMS-63" transform="translate(556.933594 0)"/>
     <use xlink:href="#ComicSansMS-79" transform="translate(608.300781 0)"/>
     <use xlink:href="#ComicSansMS-20" transform="translate(660.351562 0)"/>
     <use xlink:href="#ComicSansMS-68" transform="translate(690.234375 0)"/>
     <use xlink:href="#ComicSansMS-69" transform="translate(747.998047 0)"/>
     <use xlink:href="#ComicSansMS-73" transform="translate(776.025391 0)"/>
     <use xlink:href="#ComicSansMS-74" transform="translate(824.707031 0)"/>
     <use xlink:href="#ComicSansMS-6f" transform="translate(871.826172 0)"/>
     <use xlink:href="#ComicSansMS-67" transform="translate(924.414062 0)"/>
     <use xlink:href="#ComicSansMS-72" transform="translate(977.490234 0)"/>
     <use xlink:href="#ComicSansMS-61" transform="translate(1025.537109 0)"/>
     <use xlink:href="#ComicSansMS-6d" transform="translate(1076.708984 0)"/>
     <use xlink:href="#ComicSansMS-20" transform="translate(1154.394531 0)"/>
     <use xlink:href="#ComicSansMS-28" transform="translate(1184.277344 0)"/>
     <use xlink:href="#ComicSansMS-6b" transform="translate(1220.898438 0)"/>
     <use xlink:href="#ComicSansMS-20" transform="translate(1274.902344 0)"/>
     <use xlink:href="#ComicSansMS-3d" transform="translate(1304.785156 0)"/>
     <use xlink:href="#ComicSansMS-20" transform="translate(1355.810547 0)"/>
     <use xlink:href="#ComicSansMS-31" transform="translate(1385.693359 0)"/>
     <use xlink:href="#ComicSansMS-30" transform="translate(1430.712891 0)"/>
     <use xlink:href="#ComicSansMS-29" transform="translate(1491.748047 0)"/>
    </g>
   </g>
  </g>
  <g id="axes_3">
   <g id="patch_22">
    <path d="M 701.98125 399.6 
L 967.98125 399.6 
L 967.98125 122.4 
L 701.98125 122.4 
z
" style="fill: #ffffff"/>
   </g>
   <g id="matplotlib.axis_5"/>
   <g id="matplotlib.axis_6">
    <g id="ytick_7">
     <g id="line2d_25">
      <g>
       <use xlink:href="#mb2e54322bb" x="701.98125" y="355.716463" style="stroke: #000000; stroke-width: 0.8"/>
      </g>
     </g>
     <g id="text_28">
      <!-- 10 -->
      <g transform="translate(682.25625 359.515682) scale(0.1 -0.1)">
       <use xlink:href="#DejaVuSans-31"/>
       <use xlink:href="#DejaVuSans-30" transform="translate(63.623047 0)"/>
      </g>
     </g>
    </g>
    <g id="ytick_8">
     <g id="line2d_26">
      <g>
       <use xlink:href="#mb2e54322bb" x="701.98125" y="310.118794" style="stroke: #000000; stroke-width: 0.8"/>
      </g>
     </g>
     <g id="text_29">
      <!-- 20 -->
      <g transform="translate(682.25625 313.918013) scale(0.1 -0.1)">
       <use xlink:href="#DejaVuSans-32"/>
       <use xlink:href="#DejaVuSans-30" transform="translate(63.623047 0)"/>
      </g>
     </g>
    </g>
    <g id="ytick_9">
     <g id="line2d_27">
      <g>
       <use xlink:href="#mb2e54322bb" x="701.98125" y="264.521125" style="stroke: #000000; stroke-width: 0.8"/>
      </g>
     </g>
     <g id="text_30">
      <!-- 30 -->
      <g transform="translate(682.25625 268.320343) scale(0.1 -0.1)">
       <use xlink:href="#DejaVuSans-33"/>
       <use xlink:href="#DejaVuSans-30" transform="translate(63.623047 0)"/>
      </g>
     </g>
    </g>
    <g id="ytick_10">
     <g id="line2d_28">
      <g>
       <use xlink:href="#mb2e54322bb" x="701.98125" y="218.923456" style="stroke: #000000; stroke-width: 0.8"/>
      </g>
     </g>
     <g id="text_31">
      <!-- 40 -->
      <g transform="translate(682.25625 222.722674) scale(0.1 -0.1)">
       <use xlink:href="#DejaVuSans-34"/>
       <use xlink:href="#DejaVuSans-30" transform="translate(63.623047 0)"/>
      </g>
     </g>
    </g>
    <g id="ytick_11">
     <g id="line2d_29">
      <g>
       <use xlink:href="#mb2e54322bb" x="701.98125" y="173.325786" style="stroke: #000000; stroke-width: 0.8"/>
      </g>
     </g>
     <g id="text_32">
      <!-- 50 -->
      <g transform="translate(682.25625 177.125005) scale(0.1 -0.1)">
       <use xlink:href="#DejaVuSans-35"/>
       <use xlink:href="#DejaVuSans-30" transform="translate(63.623047 0)"/>
      </g>
     </g>
    </g>
    <g id="ytick_12">
     <g id="line2d_30">
      <g>
       <use xlink:href="#mb2e54322bb" x="701.98125" y="127.728117" style="stroke: #000000; stroke-width: 0.8"/>
      </g>
     </g>
     <g id="text_33">
      <!-- 60 -->
      <g transform="translate(682.25625 131.527336) scale(0.1 -0.1)">
       <use xlink:href="#DejaVuSans-36"/>
       <use xlink:href="#DejaVuSans-30" transform="translate(63.623047 0)"/>
      </g>
     </g>
    </g>
    <g id="text_34">
     <!-- V -->
     <g transform="translate(674.85125 264.899062) rotate(-90) scale(0.12 -0.12)">
      <use xlink:href="#ComicSansMS-56"/>
     </g>
    </g>
   </g>
   <g id="patch_23">
    <path d="M 821.68125 275.928824 
L 848.28125 275.928824 
L 848.28125 231.850377 
L 821.68125 231.850377 
L 821.68125 275.928824 
z
" clip-path="url(#p69b7bbf4b7)" style="fill: #ffa500; stroke: #808080; stroke-linejoin: miter"/>
   </g>
   <g id="line2d_31">
    <path d="M 834.98125 275.928824 
L 834.98125 311.12766 
" clip-path="url(#p69b7bbf4b7)" style="fill: none; stroke: #808080; stroke-linecap: square"/>
   </g>
   <g id="line2d_32">
    <path d="M 834.98125 231.850377 
L 834.98125 209.805283 
" clip-path="url(#p69b7bbf4b7)" style="fill: none; stroke: #808080; stroke-linecap: square"/>
   </g>
   <g id="line2d_33">
    <path d="M 828.33125 311.12766 
L 841.63125 311.12766 
" clip-path="url(#p69b7bbf4b7)" style="fill: none; stroke: #808080; stroke-linecap: square"/>
   </g>
   <g id="line2d_34">
    <path d="M 828.33125 209.805283 
L 841.63125 209.805283 
" clip-path="url(#p69b7bbf4b7)" style="fill: none; stroke: #808080; stroke-linecap: square"/>
   </g>
   <g id="line2d_35">
    <defs>
     <path id="m6c6de7d3c4" d="M 0 2 
C 0.530406 2 1.03916 1.789267 1.414214 1.414214 
C 1.789267 1.03916 2 0.530406 2 0 
C 2 -0.530406 1.789267 -1.03916 1.414214 -1.414214 
C 1.03916 -1.789267 0.530406 -2 0 -2 
C -0.530406 -2 -1.03916 -1.789267 -1.414214 -1.414214 
C -1.789267 -1.03916 -2 -0.530406 -2 0 
C -2 0.530406 -1.789267 1.03916 -1.414214 1.414214 
C -1.03916 1.789267 -0.530406 2 0 2 
z
" style="stroke: #000000; stroke-opacity: 0.5"/>
    </defs>
    <g clip-path="url(#p69b7bbf4b7)">
     <use xlink:href="#m6c6de7d3c4" x="834.98125" y="377.74389" style="fill: #ffa500; fill-opacity: 0.5; stroke: #000000; stroke-opacity: 0.5"/>
     <use xlink:href="#m6c6de7d3c4" x="834.98125" y="364.455203" style="fill: #ffa500; fill-opacity: 0.5; stroke: #000000; stroke-opacity: 0.5"/>
     <use xlink:href="#m6c6de7d3c4" x="834.98125" y="379.456899" style="fill: #ffa500; fill-opacity: 0.5; stroke: #000000; stroke-opacity: 0.5"/>
     <use xlink:href="#m6c6de7d3c4" x="834.98125" y="387" style="fill: #ffa500; fill-opacity: 0.5; stroke: #000000; stroke-opacity: 0.5"/>
     <use xlink:href="#m6c6de7d3c4" x="834.98125" y="154.371742" style="fill: #ffa500; fill-opacity: 0.5; stroke: #000000; stroke-opacity: 0.5"/>
     <use xlink:href="#m6c6de7d3c4" x="834.98125" y="135" style="fill: #ffa500; fill-opacity: 0.5; stroke: #000000; stroke-opacity: 0.5"/>
    </g>
   </g>
   <g id="line2d_36">
    <path d="M 821.68125 255.997393 
L 848.28125 255.997393 
" clip-path="url(#p69b7bbf4b7)" style="fill: none; stroke: #ffffff"/>
   </g>
   <g id="patch_24">
    <path d="M 701.98125 399.6 
L 701.98125 122.4 
" style="fill: none; stroke: #000000; stroke-width: 0.8; stroke-linejoin: miter; stroke-linecap: square"/>
   </g>
   <g id="patch_25">
    <path d="M 967.98125 399.6 
L 967.98125 122.4 
" style="fill: none; stroke: #000000; stroke-width: 0.8; stroke-linejoin: miter; stroke-linecap: square"/>
   </g>
   <g id="patch_26">
    <path d="M 701.98125 399.6 
L 967.98125 399.6 
" style="fill: none; stroke: #000000; stroke-width: 0.8; stroke-linejoin: miter; stroke-linecap: square"/>
   </g>
   <g id="patch_27">
    <path d="M 701.98125 122.4 
L 967.98125 122.4 
" style="fill: none; stroke: #000000; stroke-width: 0.8; stroke-linejoin: miter; stroke-linecap: square"/>
   </g>
   <g id="text_35">
    <!-- Boxplot -->
    <g transform="translate(810.114844 99.229) scale(0.14 -0.14)">
     <defs>
      <path id="ComicSansMS-42" d="M 2769 125 
Q 2066 -150 972 -150 
Q 838 -150 717 -23 
Q 597 103 597 238 
L 597 1147 
Q 597 1594 653 2422 
Q 716 3316 722 3716 
Q 719 4003 756 4572 
Q 778 4728 859 4778 
Q 1284 4909 1825 4909 
Q 2375 4909 2881 4534 
Q 3466 4103 3466 3469 
Q 3466 2666 2841 2203 
Q 3309 2003 3542 1759 
Q 3775 1516 3775 1228 
Q 3775 850 3366 497 
Q 3081 247 2769 125 
z
M 1825 4272 
Q 1484 4272 1347 4250 
L 1341 3703 
L 1278 2494 
Q 1722 2456 1753 2459 
Q 2225 2497 2525 2753 
Q 2847 3031 2847 3469 
Q 2847 3766 2519 4019 
Q 2191 4272 1825 4272 
z
M 2175 1769 
L 1844 1822 
Q 1803 1822 1720 1817 
Q 1638 1813 1594 1813 
Q 1425 1813 1234 1841 
Q 1216 1447 1216 1138 
L 1216 491 
Q 2034 519 2550 722 
Q 2769 806 2969 984 
Q 3159 1147 3159 1228 
Q 3159 1375 2759 1559 
Q 2459 1700 2175 1769 
z
" transform="scale(0.015625)"/>
      <path id="ComicSansMS-78" d="M 3306 2681 
L 2850 2253 
L 2294 1700 
L 3313 369 
Q 3391 269 3391 172 
Q 3391 50 3297 -44 
Q 3203 -138 3084 -138 
Q 2966 -138 2869 -22 
Q 2581 313 1856 1266 
L 1247 638 
Q 1063 472 709 122 
Q 609 9 494 9 
Q 375 9 283 103 
Q 191 197 191 319 
Q 191 416 269 516 
Q 356 631 541 794 
Q 756 984 825 1056 
L 1491 1753 
L 1081 2344 
Q 834 2697 650 2859 
Q 531 2966 531 3091 
Q 531 3216 620 3312 
Q 709 3409 825 3409 
Q 1009 3409 1381 2928 
L 1922 2181 
L 2534 2744 
Q 2916 3103 3050 3306 
Q 3150 3453 3288 3453 
Q 3409 3453 3503 3362 
Q 3597 3272 3597 3153 
Q 3597 2981 3306 2681 
z
" transform="scale(0.015625)"/>
      <path id="ComicSansMS-70" d="M 1763 -109 
Q 1450 -109 1075 -9 
L 1069 -1503 
Q 1069 -1641 983 -1728 
Q 897 -1816 763 -1816 
Q 628 -1816 542 -1728 
Q 456 -1641 456 -1503 
L 466 -253 
L 466 994 
Q 456 1678 419 2241 
L 372 2875 
Q 372 3097 453 3250 
Q 547 3434 725 3434 
Q 847 3434 930 3348 
Q 1013 3263 1013 3138 
Q 1013 3109 1003 3034 
Q 988 2938 981 2856 
Q 1250 3041 1500 3133 
Q 1750 3225 1978 3225 
Q 2619 3225 2916 2656 
Q 3150 2206 3150 1466 
Q 3150 791 2788 353 
Q 2403 -109 1763 -109 
z
M 1978 2600 
Q 1691 2600 1459 2472 
Q 1294 2381 1041 2141 
Q 1081 1431 1081 650 
Q 1422 519 1763 519 
Q 2153 519 2359 809 
Q 2538 1063 2538 1466 
Q 2538 2034 2398 2317 
Q 2259 2600 1978 2600 
z
" transform="scale(0.015625)"/>
     </defs>
     <use xlink:href="#ComicSansMS-42"/>
     <use xlink:href="#ComicSansMS-6f" transform="translate(63.037109 0)"/>
     <use xlink:href="#ComicSansMS-78" transform="translate(115.625 0)"/>
     <use xlink:href="#ComicSansMS-70" transform="translate(174.658203 0)"/>
     <use xlink:href="#ComicSansMS-6c" transform="translate(228.125 0)"/>
     <use xlink:href="#ComicSansMS-6f" transform="translate(255.517578 0)"/>
     <use xlink:href="#ComicSansMS-74" transform="translate(308.105469 0)"/>
    </g>
    <!-- (vertical orientation) -->
    <g transform="translate(766.808906 116.4) scale(0.14 -0.14)">
     <defs>
      <path id="ComicSansMS-76" d="M 1875 163 
Q 1866 -125 1591 -125 
Q 1363 -125 1259 144 
L 781 1413 
L 225 2847 
Q 194 2928 194 2991 
Q 194 3119 291 3209 
Q 388 3300 516 3300 
Q 703 3300 784 3109 
L 1578 925 
Q 1813 1425 2169 2375 
Q 2253 2625 2434 3081 
Q 2531 3281 2709 3281 
Q 2838 3281 2934 3190 
Q 3031 3100 3031 2975 
Q 3031 2856 2516 1638 
L 1875 163 
z
" transform="scale(0.015625)"/>
     </defs>
     <use xlink:href="#ComicSansMS-28"/>
     <use xlink:href="#ComicSansMS-76" transform="translate(36.621094 0)"/>
     <use xlink:href="#ComicSansMS-65" transform="translate(85.253906 0)"/>
     <use xlink:href="#ComicSansMS-72" transform="translate(140.039062 0)"/>
     <use xlink:href="#ComicSansMS-74" transform="translate(188.085938 0)"/>
     <use xlink:href="#ComicSansMS-69" transform="translate(235.205078 0)"/>
     <use xlink:href="#ComicSansMS-63" transform="translate(263.232422 0)"/>
     <use xlink:href="#ComicSansMS-61" transform="translate(314.599609 0)"/>
     <use xlink:href="#ComicSansMS-6c" transform="translate(365.771484 0)"/>
     <use xlink:href="#ComicSansMS-20" transform="translate(393.164062 0)"/>
     <use xlink:href="#ComicSansMS-6f" transform="translate(423.046875 0)"/>
     <use xlink:href="#ComicSansMS-72" transform="translate(475.634766 0)"/>
     <use xlink:href="#ComicSansMS-69" transform="translate(523.681641 0)"/>
     <use xlink:href="#ComicSansMS-65" transform="translate(551.708984 0)"/>
     <use xlink:href="#ComicSansMS-6e" transform="translate(606.494141 0)"/>
     <use xlink:href="#ComicSansMS-74" transform="translate(658.837891 0)"/>
     <use xlink:href="#ComicSansMS-61" transform="translate(705.957031 0)"/>
     <use xlink:href="#ComicSansMS-74" transform="translate(757.128906 0)"/>
     <use xlink:href="#ComicSansMS-69" transform="translate(804.248047 0)"/>
     <use xlink:href="#ComicSansMS-6f" transform="translate(832.275391 0)"/>
     <use xlink:href="#ComicSansMS-6e" transform="translate(884.863281 0)"/>
     <use xlink:href="#ComicSansMS-29" transform="translate(937.207031 0)"/>
    </g>
   </g>
  </g>
  <g id="axes_4">
   <g id="matplotlib.axis_7"/>
   <g id="patch_28">
    <path d="M 475.523139 198.63 
L 475.523139 184.77 
L 513.226573 184.77 
L 513.226573 198.63 
L 475.523139 198.63 
z
" clip-path="url(#pd27d381c84)" style="fill: #ffa500; stroke: #808080; stroke-linejoin: miter"/>
   </g>
   <g id="line2d_37">
    <path d="M 475.523139 191.7 
L 445.415069 191.7 
" clip-path="url(#pd27d381c84)" style="fill: none; stroke: #808080; stroke-linecap: square"/>
   </g>
   <g id="line2d_38">
    <path d="M 513.226573 191.7 
L 532.083311 191.7 
" clip-path="url(#pd27d381c84)" style="fill: none; stroke: #808080; stroke-linecap: square"/>
   </g>
   <g id="line2d_39">
    <path d="M 445.415069 195.165 
L 445.415069 188.235 
" clip-path="url(#pd27d381c84)" style="fill: none; stroke: #808080; stroke-linecap: square"/>
   </g>
   <g id="line2d_40">
    <path d="M 532.083311 195.165 
L 532.083311 188.235 
" clip-path="url(#pd27d381c84)" style="fill: none; stroke: #808080; stroke-linecap: square"/>
   </g>
   <g id="line2d_41">
    <g clip-path="url(#pd27d381c84)">
     <use xlink:href="#m6c6de7d3c4" x="388.433465" y="191.7" style="fill: #ffa500; fill-opacity: 0.5; stroke: #000000; stroke-opacity: 0.5"/>
     <use xlink:href="#m6c6de7d3c4" x="399.800225" y="191.7" style="fill: #ffa500; fill-opacity: 0.5; stroke: #000000; stroke-opacity: 0.5"/>
     <use xlink:href="#m6c6de7d3c4" x="386.968206" y="191.7" style="fill: #ffa500; fill-opacity: 0.5; stroke: #000000; stroke-opacity: 0.5"/>
     <use xlink:href="#m6c6de7d3c4" x="380.516055" y="191.7" style="fill: #ffa500; fill-opacity: 0.5; stroke: #000000; stroke-opacity: 0.5"/>
     <use xlink:href="#m6c6de7d3c4" x="579.499565" y="191.7" style="fill: #ffa500; fill-opacity: 0.5; stroke: #000000; stroke-opacity: 0.5"/>
     <use xlink:href="#m6c6de7d3c4" x="596.069595" y="191.7" style="fill: #ffa500; fill-opacity: 0.5; stroke: #000000; stroke-opacity: 0.5"/>
    </g>
   </g>
   <g id="line2d_42">
    <path d="M 492.571911 198.63 
L 492.571911 184.77 
" clip-path="url(#pd27d381c84)" style="fill: none; stroke: #ffffff"/>
   </g>
   <g id="patch_29">
    <path d="M 356.18125 399.6 
L 356.18125 122.4 
" style="fill: none; stroke: #000000; stroke-width: 0.8; stroke-linejoin: miter; stroke-linecap: square"/>
   </g>
   <g id="patch_30">
    <path d="M 622.18125 399.6 
L 622.18125 122.4 
" style="fill: none; stroke: #000000; stroke-width: 0.8; stroke-linejoin: miter; stroke-linecap: square"/>
   </g>
   <g id="patch_31">
    <path d="M 356.18125 399.6 
L 622.18125 399.6 
" style="fill: none; stroke: #000000; stroke-width: 0.8; stroke-linejoin: miter; stroke-linecap: square"/>
   </g>
   <g id="patch_32">
    <path d="M 356.18125 122.4 
L 622.18125 122.4 
" style="fill: none; stroke: #000000; stroke-width: 0.8; stroke-linejoin: miter; stroke-linecap: square"/>
   </g>
  </g>
  <g id="text_36">
   <!-- Boxplot -->
   <g transform="translate(455.7225 19.77) scale(0.16 -0.16)">
    <use xlink:href="#ComicSansMS-42"/>
    <use xlink:href="#ComicSansMS-6f" transform="translate(63.037109 0)"/>
    <use xlink:href="#ComicSansMS-78" transform="translate(115.625 0)"/>
    <use xlink:href="#ComicSansMS-70" transform="translate(174.658203 0)"/>
    <use xlink:href="#ComicSansMS-6c" transform="translate(228.125 0)"/>
    <use xlink:href="#ComicSansMS-6f" transform="translate(255.517578 0)"/>
    <use xlink:href="#ComicSansMS-74" transform="translate(308.105469 0)"/>
   </g>
  </g>
 </g>
 <defs>
  <clipPath id="p6fcd30ab1d">
   <rect x="10.38125" y="122.4" width="266" height="277.2"/>
  </clipPath>
  <clipPath id="pd27d381c84">
   <rect x="356.18125" y="122.4" width="266" height="277.2"/>
  </clipPath>
  <clipPath id="p69b7bbf4b7">
   <rect x="701.98125" y="122.4" width="266" height="277.2"/>
  </clipPath>
 </defs>
</svg>
